<?xml version="1.0" encoding="UTF-8"?>
<svg id="Layer_1" data-name="Layer 1" xmlns="http://www.w3.org/2000/svg" xmlns:xlink="http://www.w3.org/1999/xlink" viewBox="0 0 1082.5 773.08">
  <defs>
    <style>
      .cls-1 {
        fill: #bdccd4;
        opacity: .42;
      }

      .cls-2, .cls-3 {
        fill: #fff;
      }

      .cls-4, .cls-5, .cls-6 {
        fill: #579cca;
      }

      .cls-4, .cls-7 {
        fill-rule: evenodd;
      }

      .cls-8 {
        fill: #2a1f10;
      }

      .cls-8, .cls-9, .cls-10, .cls-11, .cls-12, .cls-3, .cls-13, .cls-14, .cls-15, .cls-16 {
        stroke-miterlimit: 10;
      }

      .cls-8, .cls-12, .cls-3, .cls-13, .cls-14, .cls-16 {
        stroke: #2b2b2b;
      }

      .cls-9 {
        stroke: #000;
      }

      .cls-9, .cls-10, .cls-11 {
        fill: none;
      }

      .cls-10 {
        stroke: #fff;
      }

      .cls-11 {
        stroke: #7e7ea3;
        stroke-width: 12px;
      }

      .cls-17 {
        letter-spacing: -.05em;
      }

      .cls-12, .cls-13, .cls-14 {
        stroke-width: .25px;
      }

      .cls-12, .cls-18 {
        fill: #be872c;
      }

      .cls-19 {
        letter-spacing: 0em;
      }

      .cls-20 {
        fill: blue;
      }

      .cls-20, .cls-21, .cls-22, .cls-23 {
        font-family: Montserrat-Bold, Montserrat;
        font-size: 14px;
      }

      .cls-20, .cls-21, .cls-22, .cls-23, .cls-24 {
        font-weight: 700;
      }

      .cls-21, .cls-24 {
        fill: #c1272d;
      }

      .cls-6 {
        opacity: .1;
      }

      .cls-25, .cls-22 {
        fill: #dfcf36;
      }

      .cls-26, .cls-16 {
        fill: #2b2b2b;
      }

      .cls-3 {
        stroke-width: .5px;
      }

      .cls-23 {
        fill: #0071bc;
      }

      .cls-13 {
        fill: #0d1128;
      }

      .cls-27 {
        fill: #7e2017;
      }

      .cls-28 {
        font-family: Montserrat-Regular, Montserrat;
        font-size: 12px;
      }

      .cls-29 {
        fill: #699fd5;
      }

      .cls-30 {
        fill: #5855a4;
      }

      .cls-7, .cls-31 {
        fill: #ed3478;
      }

      .cls-32 {
        opacity: .36;
      }

      .cls-33 {
        fill: #333;
        opacity: .13;
      }

      .cls-14 {
        fill: #4353a4;
      }

      .cls-24 {
        font-family: ComicSansMS-Bold, 'Comic Sans MS';
        font-size: 95.18px;
        opacity: .83;
      }

      .cls-34 {
        fill: #d2d2d2;
      }

      .cls-15 {
        fill: #d29629;
        filter: url(#drop-shadow-1);
        stroke: #d29629;
      }
    </style>
    <filter id="drop-shadow-1" filterUnits="userSpaceOnUse">
      <feOffset dx="0" dy="0"/>
      <feGaussianBlur result="blur" stdDeviation="1"/>
      <feFlood flood-color="#000" flood-opacity=".75"/>
      <feComposite in2="blur" operator="in"/>
      <feComposite in="SourceGraphic"/>
    </filter>
  </defs>
  <rect class="cls-6" width="1082.5" height="768"/>
  <g class="cls-32">
    <g>
      <path class="cls-11" d="m196.67,160.1c48.85-41.95-26.89-96.56-75.92-86.33-49.03,10.23-72.91,37.64-74.11,59.03s45.39,54.23,58.05,73.27c12.66,19.04-7.82,78.18-7.82,78.18"/>
      <path class="cls-11" d="m95.15,299.21c9,.66,17.57-3.86,20.04-10.99.22-.64,5.43-15.76,9.08-33.5,7.26-35.22,1.89-48.62-2.77-55.64-5.36-8.07-14.73-17.16-24.65-26.77-8.32-8.07-16.92-16.41-23.16-24.13-7.72-9.55-8.13-13.67-8.07-14.71.44-7.85,5.65-16.72,14.29-24.34,10.98-9.68,26.78-16.89,45.7-20.83,18.98-3.96,48.22,8.12,61.33,25.34,9.98,13.1,8.55,25.31-4.23,36.29-7.11,6.1-6.61,15.61,1.1,21.23,7.71,5.62,19.73,5.23,26.83-.87,24.14-20.73,27.44-47.7,8.83-72.14-10.2-13.39-26.08-24.87-44.71-32.31-19.99-7.99-40.89-10.32-58.84-6.58-26.11,5.45-48.34,15.76-64.29,29.83-14.61,12.89-23.12,28.18-23.95,43.06-1.1,19.54,19.66,39.68,39.74,59.16,8.3,8.05,16.88,16.37,20.47,21.77.2.3,4.88,7.78-1.1,36.82-3.34,16.19-8.18,30.26-8.23,30.4-2.77,8,3.18,16.27,13.3,18.46,1.1.24,2.2.39,3.29.47Z"/>
    </g>
    <g>
      <line class="cls-11" x1="81.9" y1="329.47" x2="79.91" y2="335.49"/>
      <path class="cls-11" d="m77.72,354.51c11.55.84,22.51-5.02,25.54-14.19l1.99-6.01c3.38-10.2-4.34-20.64-17.24-23.31-12.9-2.67-26.09,3.44-29.46,13.64l-1.99,6.01c-3.38,10.2,4.34,20.64,17.24,23.31,1.31.27,2.62.45,3.92.55Z"/>
    </g>
  </g>
  <g>
    <path class="cls-29" d="m489.32,768.28c0-34.65-14.4-65.12-40.71-88.6-33.82-30.19-87.33-48.84-155.22-50.02-63.16-1.1-117.42,16.5-154.82,44.87-34.14,25.89-54.23,60.75-54.23,98.55"/>
    <polyline class="cls-12" points="242.74 632.72 298.85 683.39 339.27 642.75 332.04 549.09 249.38 549.09 242.74 632.72"/>
    <g>
      <path class="cls-12" d="m294.13,216.73c82.65,0,107.39,53.69,107.39,53.69l7.24-3.62s29.56,50.68,13.27,141.78c-16.29,91.1-2.41-30.77,17.5,4.83,19.91,35.6-31.37,61.54-32.58,65.76s-5.43,55.5-36.2,68.78c-30.77,13.27-21.12,16.89-41.63,18.1-20.51,1.21.6,13.27-45.25,10.86"/>
      <path class="cls-18" d="m294.44,216.5c-82.65,0-107.39,53.69-107.39,53.69l-7.24-3.62s-29.56,50.68-13.27,141.78c16.29,91.1,2.41-30.77-17.5,4.83-19.91,35.6,31.37,61.54,32.58,65.76s5.43,55.5,36.2,68.78c30.77,13.27,21.12,16.89,41.63,18.1s-.6,13.27,45.25,10.86"/>
    </g>
    <path class="cls-34" d="m187.24,331.93s24.74-19.31,65.16-9.05c0,0,3.54,28.72,0,27.75-37.41-10.26-48.27,4.08-55.5,3.62l-9.65-22.32Z"/>
    <ellipse class="cls-3" cx="228.86" cy="419.71" rx="26.85" ry="31.71"/>
    <ellipse class="cls-8" cx="228.86" cy="422.44" rx="9.92" ry="13.99"/>
    <path class="cls-26" d="m198.52,407.28c3.67-8.82,9.75-18.07,19.37-21.23,9.35-3.02,20.33-1.3,27.88,5.08,5.03,4.23,8.24,10.29,9.48,16.61.06.29-.13.57-.42.63-.29.06-.56-.13-.63-.41-1.35-6.08-4.6-11.78-9.42-15.64-9.46-7.56-24.8-7.89-33.78.6-4.46,4.14-7.42,9.73-9.71,15.49-.75,1.84-3.54.72-2.77-1.14h0Z"/>
    <path class="cls-34" d="m399.3,331.93s-24.74-19.31-65.16-9.05c0,0-3.54,28.72,0,27.75,37.41-10.26,48.27,4.08,55.5,3.62l9.65-22.32Z"/>
    <ellipse class="cls-3" cx="357.67" cy="419.71" rx="26.85" ry="31.71"/>
    <ellipse class="cls-8" cx="357.67" cy="422.44" rx="9.92" ry="13.99"/>
    <path class="cls-26" d="m385.89,412.56c-.55-6.47-2.8-12.95-7.28-17.73-11.73-12.1-33.66-11.89-42.74,3.43-1.68,2.84-2.71,6.1-2.76,9.4,0,.3-.24.53-.54.53-.29,0-.53-.24-.53-.53-.03-3.52.99-7,2.69-10.05,11.38-20.16,43.11-16.47,51.55,4.38,1.39,3.28,2.21,6.77,2.6,10.28.09.82-.5,1.57-1.32,1.66-.84.1-1.59-.53-1.66-1.37h0Z"/>
    <path class="cls-15" d="m294.19,456.93l-25.51-15.11c-.75-.45-.44-1.6.44-1.6h51.03c.88,0,1.19,1.15.44,1.6l-25.51,15.11c-.27.16-.61.16-.88,0Z"/>
    <path class="cls-16" d="m294.63,488.64s-33.94-2.78-36.65-1.09-7.99,13.46-7.99,18.13-.2,30.72,3.17,34.09c4.52,4.52,34.99,13.29,41.48,12.84"/>
    <path class="cls-16" d="m293,488s35.56-2.14,38.28-.45c2.71,1.69,7.99,13.46,7.99,18.13,0,4.68.2,30.72-3.17,34.09-4.52,4.52-36.62,12.68-43.1,12.23"/>
    <g>
      <g>
        <polygon class="cls-14" points="210.46 642.49 245.3 616.7 284.67 654.25 277.42 664.52 257.52 692.71 210.46 642.49"/>
        <polygon class="cls-13" points="294.63 679.58 275.1 667.82 284.67 654.25 294.63 679.58"/>
      </g>
      <g>
        <polygon class="cls-14" points="384.23 642.03 349.39 616.24 310.03 653.8 317.27 664.07 337.18 692.26 384.23 642.03"/>
        <polygon class="cls-13" points="302.14 680.09 319.6 667.36 310.03 653.8 302.14 680.09"/>
      </g>
    </g>
    <path class="cls-2" d="m257.43,485.25s-2.78,11.05,36.89,11.05,36.53-11.05,36.53-11.05"/>
    <path class="cls-27" d="m257.43,544s14.43-18.25,38.33-18.25,35.09,18.25,35.09,18.25"/>
    <g>
      <path class="cls-34" d="m294.14,481.51s-29.06-6.89-58.11,2.61c0,0,24.82-21.75,31.62-23.04s17.74,7.1,26.49,7.31"/>
      <path class="cls-34" d="m294.14,481.51s36.68-5.99,57.04,4.27c0,0-23.74-23.41-30.55-24.7-6.81-1.29-17.74,7.1-26.49,7.31"/>
    </g>
    <path class="cls-34" d="m409.44,266.58s-22.81,8.95-24.92,19.35c-2.11,10.41,16.44,17.65,22.78,27.6,6.33,9.95,10.41,48.42,9.95,55.66-.45,7.24-4.07,42.08-7.69,47.51-3.62,5.43,7.21,12.47,12.21,3.01l5-9.46s8.8-137.69-17.33-143.67Z"/>
    <path class="cls-34" d="m176.93,258.18s22.81,8.95,24.92,19.35c2.11,10.41-16.44,17.65-22.78,27.6-6.33,9.95-10.41,48.42-9.95,55.66.45,7.24,4.07,42.08,7.69,47.51s-7.21,12.47-12.21,3.01l-5-9.46s-8.8-137.69,17.33-143.67Z"/>
    <g>
      <path class="cls-2" d="m294.63,553.95h4.07s6.03-1.06,10.11-2.11c4.07-1.06,22.62-6.64,26.55-9.5v-8.3l-1.21,1.51s-26.45,6.49-40,6.18"/>
      <path class="cls-2" d="m295.28,553.95h-4.07s-6.03-1.06-10.11-2.11c-4.07-1.06-22.62-6.64-26.55-9.5l.47-7.71.73.92s26.45,6.49,40,6.18"/>
    </g>
  </g>
  <g>
    <rect class="cls-1" x="520.5" y="350.5" width="528" height="407" rx="22.93" ry="22.93"/>
    <g id="Line_Graph_-_EDIT_HERE" data-name="Line Graph - EDIT HERE">
      <g>
        <line class="cls-9" x1="550.61" y1="705.58" x2="869.33" y2="705.58"/>
        <g>
          <line class="cls-10" x1="550.61" y1="705.58" x2="550.61" y2="697.61"/>
          <line class="cls-9" x1="630.29" y1="705.58" x2="630.29" y2="697.61"/>
          <line class="cls-9" x1="709.97" y1="705.58" x2="709.97" y2="697.61"/>
          <line class="cls-9" x1="789.65" y1="705.58" x2="789.65" y2="697.61"/>
          <line class="cls-9" x1="869.33" y1="705.58" x2="869.33" y2="697.61"/>
        </g>
      </g>
      <g>
        <text class="cls-28" transform="translate(541.66 711.18)"><tspan x="0" y="0">0</tspan></text>
        <text class="cls-28" transform="translate(538.28 647.44)"><tspan class="cls-19" x="0" y="0">2</tspan><tspan x="6.77" y="0">0</tspan></text>
        <text class="cls-28" transform="translate(537.7 583.69)"><tspan x="0" y="0">40</tspan></text>
        <text class="cls-28" transform="translate(538.01 519.95)"><tspan x="0" y="0">60</tspan></text>
        <text class="cls-28" transform="translate(537.83 456.21)"><tspan x="0" y="0">80</tspan></text>
        <text class="cls-28" transform="translate(535.52 392.46)"><tspan x="0" y="0">100</tspan></text>
      </g>
      <g>
        <g>
          <rect class="cls-30" x="891.81" y="401.52" width="39.84" height="2.56"/>
          <polygon class="cls-30" points="591.36 668.24 670.49 589.11 750.32 614.66 830.54 499.14 828.44 497.68 749.3 611.64 669.78 586.2 589.55 666.43 591.36 668.24"/>
        </g>
        <g>
          <rect class="cls-31" x="891.81" y="449.32" width="39.84" height="2.56"/>
          <polygon class="cls-7" points="589.86 505.92 670.49 547.85 749.46 446.77 828.31 642.31 830.68 641.36 750.17 441.69 669.78 544.59 591.04 503.65 589.86 505.92"/>
        </g>
        <g>
          <rect class="cls-5" x="891.81" y="497.13" width="39.84" height="2.56"/>
          <polygon class="cls-4" points="589.9 572.87 670.67 611.64 750.11 468.64 828.59 547.12 830.4 545.31 749.52 464.43 669.6 608.29 591.01 570.56 589.9 572.87"/>
        </g>
        <g>
          <rect class="cls-25" x="891.81" y="544.94" width="39.84" height="2.56"/>
          <polygon class="cls-25" points="590.06 617.56 670.43 643.28 750.83 572.53 830.62 425.72 828.37 424.49 748.8 570.91 669.83 640.4 590.84 615.12 590.06 617.56"/>
        </g>
      </g>
      <g>
        <text class="cls-20" transform="translate(954.63 408.4)"><tspan class="cls-17" x="0" y="0">V</tspan><tspan x="9.67" y="0">alue 4</tspan></text>
        <text class="cls-21" transform="translate(954.63 456.21)"><tspan class="cls-17" x="0" y="0">V</tspan><tspan x="9.67" y="0">alue 3</tspan></text>
        <text class="cls-23" transform="translate(954.63 504.01)"><tspan class="cls-17" x="0" y="0">V</tspan><tspan x="9.67" y="0">alue 2</tspan></text>
        <text class="cls-22" transform="translate(954.63 551.82)"><tspan class="cls-17" x="0" y="0">V</tspan><tspan x="9.67" y="0">alue 1</tspan></text>
      </g>
    </g>
  </g>
  <path class="cls-33" d="m957.33,240.23l-8.05,56.82c-32.58,10.49-42.85,9.07-62.11,9.92l-137.67,14.59c-15.37.67-72.71-7.96-85.55-15.31l-67.79-42.94c-10.28-5.88-5.03-11.3,3.9-17.69,18.3-13.09,23.17-35.64,11.71-53.63l-10.65-16.7c1.88-16.38,23.57-14.13,44.88-14.56,12.27-.25,24.27-3.18,34.87-8.53l49.23-24.86c9.78-3.44,33.72,4.37,52.61,10.68,13.06,4.36,27.31,5.3,40.98,2.71l59.36-11.24c10.98,2.41,17.67,13.81,23.3,25.72,6.72,14.21,21.4,24.43,38.87,27.05l29.07,4.35c15.89,23.41-15.77,31.4-16.94,53.62Z"/>
  <text class="cls-24" transform="translate(688.23 269.08) scale(1.16 1)"><tspan x="0" y="0">50%</tspan></text>
  <circle class="cls-33" cx="359.5" cy="178.5" r="21"/>
  <circle class="cls-33" cx="428.5" cy="111.5" r="30"/>
  <circle class="cls-33" cx="559" cy="110" r="56.5"/>
</svg>