<?xml version="1.0" encoding="UTF-8"?>
<svg id="Layer_1" data-name="Layer 1" xmlns="http://www.w3.org/2000/svg" xmlns:xlink="http://www.w3.org/1999/xlink" viewBox="0 0 500 476.08">
  <defs>
    <style>
      .cls-1, .cls-2, .cls-3, .cls-4, .cls-5, .cls-6, .cls-7, .cls-8, .cls-9, .cls-10, .cls-11, .cls-12, .cls-13 {
        stroke-miterlimit: 10;
      }

      .cls-1, .cls-14, .cls-15, .cls-16, .cls-11 {
        stroke-linecap: round;
      }

      .cls-1, .cls-4, .cls-15, .cls-11 {
        stroke-width: 2px;
      }

      .cls-1, .cls-15, .cls-7, .cls-9, .cls-11, .cls-13 {
        fill: none;
      }

      .cls-1, .cls-7, .cls-12 {
        stroke: gray;
      }

      .cls-17 {
        fill: url(#linear-gradient-2);
      }

      .cls-18, .cls-6, .cls-10 {
        fill: #8c6239;
      }

      .cls-2 {
        fill: #333;
      }

      .cls-2, .cls-3, .cls-6 {
        stroke-width: .25px;
      }

      .cls-2, .cls-3, .cls-6, .cls-8 {
        stroke: #4d4d4d;
      }

      .cls-19 {
        fill: #fff;
      }

      .cls-3 {
        fill: #4d4d4d;
      }

      .cls-14 {
        fill: #c69c6d;
      }

      .cls-14, .cls-15, .cls-16 {
        stroke-linejoin: round;
      }

      .cls-14, .cls-11 {
        stroke: #fff;
      }

      .cls-4 {
        fill: url(#linear-gradient-3);
        stroke: url(#Gold_Dust);
      }

      .cls-5 {
        opacity: .13;
        stroke: #666;
      }

      .cls-5, .cls-20 {
        fill: #65c8d0;
      }

      .cls-15, .cls-10 {
        stroke: #8c6239;
      }

      .cls-21 {
        filter: url(#drop-shadow-1);
      }

      .cls-22, .cls-23 {
        fill: #0071bc;
      }

      .cls-22, .cls-20 {
        opacity: .18;
      }

      .cls-24 {
        fill: #e6e6e6;
      }

      .cls-25 {
        fill: #42210b;
      }

      .cls-16 {
        fill: #754c24;
        stroke: #603813;
      }

      .cls-9 {
        stroke-width: 8px;
      }

      .cls-9, .cls-13 {
        stroke: #0669bb;
      }

      .cls-26 {
        fill: #1a1a1a;
      }

      .cls-27 {
        fill: url(#linear-gradient);
      }

      .cls-12 {
        fill: url(#White_Black);
      }

      .cls-13 {
        stroke-width: 5px;
      }
    </style>
    <linearGradient id="White_Black" data-name="White, Black" x1="77.08" y1="221.63" x2="97.36" y2="221.63" gradientUnits="userSpaceOnUse">
      <stop offset="0" stop-color="#fff"/>
      <stop offset="1" stop-color="#000"/>
    </linearGradient>
    <linearGradient id="linear-gradient" x1="253.15" y1="169.94" x2="375.15" y2="169.94" gradientUnits="userSpaceOnUse">
      <stop offset="0" stop-color="#006837"/>
      <stop offset=".2" stop-color="#43906c"/>
      <stop offset=".42" stop-color="#85b79f"/>
      <stop offset=".61" stop-color="#b9d6c8"/>
      <stop offset=".78" stop-color="#dfece6"/>
      <stop offset=".91" stop-color="#f6faf8"/>
      <stop offset="1" stop-color="#fff"/>
    </linearGradient>
    <linearGradient id="linear-gradient-2" x1="456.17" y1="209.06" x2="324.02" y2="209.06" xlink:href="#linear-gradient"/>
    <linearGradient id="linear-gradient-3" x1="348.38" y1="165.82" x2="398.37" y2="165.82" gradientUnits="userSpaceOnUse">
      <stop offset="0" stop-color="#ff7300"/>
      <stop offset=".07" stop-color="#f97c00"/>
      <stop offset=".18" stop-color="#ea9502"/>
      <stop offset=".21" stop-color="#e59e03"/>
      <stop offset=".49" stop-color="#e5c500"/>
      <stop offset=".62" stop-color="#d9ab00"/>
      <stop offset=".87" stop-color="#c67f00"/>
      <stop offset=".99" stop-color="#bf6f00"/>
    </linearGradient>
    <linearGradient id="Gold_Dust" data-name="Gold Dust" x1="347.38" y1="165.82" x2="399.37" y2="165.82" gradientUnits="userSpaceOnUse">
      <stop offset="0" stop-color="#ff7300"/>
      <stop offset=".18" stop-color="#f97c00"/>
      <stop offset=".47" stop-color="#ea9502"/>
      <stop offset=".55" stop-color="#e59e03"/>
      <stop offset=".87" stop-color="#e5c500"/>
      <stop offset=".99" stop-color="#bf6f00"/>
    </linearGradient>
    <filter id="drop-shadow-1" filterUnits="userSpaceOnUse">
      <feOffset dx="0" dy="2.83"/>
      <feGaussianBlur result="blur" stdDeviation="5"/>
      <feFlood flood-color="#000" flood-opacity=".75"/>
      <feComposite in2="blur" operator="in"/>
      <feComposite in="SourceGraphic"/>
    </filter>
  </defs>
  <path class="cls-22" d="m500,61.96l-31.25,3.43c-6.93.76-14.59.28-20.15-1.26l-87.88-24.35c-8.1-2.24-20.14-2.12-27.77.29l-76.91,24.29c-9.99,3.16-24.86,4.06-37.72,2.3l-98.18-13.46c-6.02-.83-12.73-.97-19.03-.4L0,61.96V0h500v61.96Z"/>
  <path class="cls-24" d="m10.68,431.28c-2.18,1.63-14.59,10.9-2.78,16.1,12.83,5.65,40.75.55,98.27,1.14,57.95.6,74.38,6.24,105.45.32,1.95-.37,23.46-4.54,28.46-9,8-7.14-36.37-5.95-35.83-16.01.32-6.03,16.45-9.63,11.3-13.28-6.85-4.85-36.46.71-55.46-3.36-21.61-4.62,25.96-23.11,5.14-23.35-9.62-.11-55.65-12.7-65.41-10.72-15.95,3.24-31.71,2.19-59.86,13.55-37.75,15.23-27.26,43.1-29.28,44.62Z"/>
  <g>
    <path class="cls-2" d="m54.3,422.79l-13.11-2.64c-1.77-.36-2.96-1.71-2.72-3.09l2.45-9.6.06-6.11,14.04,1.62.9,5.77c6.77,1.21,12.62,3.67,12.02,10.41-.05.6-.45,1.15-1.1,1.46l-2.03.99c-3.07,1.5-6.86,1.93-10.5,1.2Z"/>
    <path class="cls-2" d="m122.44,426.56l-13.11-2.64c-1.77-.36-2.96-1.71-2.72-3.09l2.45-9.6.06-6.11,14.04,1.62.9,5.77c6.77,1.21,12.62,3.67,12.02,10.41-.05.6-.45,1.15-1.1,1.46l-2.03.99c-3.07,1.5-6.86,1.93-10.5,1.2Z"/>
    <path class="cls-18" d="m44.41,264.38l-4.4-5.67c-.04-.05-.1-.08-.15-.13l-.46-4-2.04-3.11.53-5.82-7.76.46-.43,4.24-2.67,4.93-.46,5.52c0,.07.02.14.02.21,0,.46.1,1.28.33,2.66v5.6c0,.73.59,1.32,1.32,1.32s1.32-.59,1.32-1.32v-5c.17.03.35.05.53.05h.16v8.72c0,.73.59,1.32,1.32,1.32s1.32-.59,1.32-1.32v-8.72h.64v10.97c0,.73.59,1.32,1.32,1.32h0c.73,0,1.32-.59,1.32-1.32v-10.97h.56v7.19c0,.73.59,1.32,1.32,1.32s1.32-.59,1.32-1.32v-7.66l1.69,1.45c.41.35.94.54,1.48.53l1.13-.02c.74-.01,1.15-.87.7-1.45Z"/>
    <path class="cls-18" d="m219.91,184.35l-7.64,3.75c-.12.06-.25.1-.38.13l-10.56,1.86-18.37,3.05c-.14.02-.28.03-.42,0l-13.4-1.72c-.64-.08-1.14-.57-1.24-1.21l-.96-6.34c-.14-.9.59-1.7,1.5-1.65l11.94.7c.28.02.56-.05.81-.19l5.38-3.13c.12-.07.25-.12.39-.16l8.73-2.08c.2-.05.39-.14.56-.27l4.39-3.46c.81-.64,2.01-.24,2.27.76l.34,1.27c.09.35.05.73-.13,1.06l-1.63,2.99c-.16.29-.41.51-.71.64l-.55.23c-1.28.53-1.13,2.4.22,2.72l5.35,1.28c.21.05.43.05.65,0l8.66-1.94,3.82-.98c.71-.18,1.45.2,1.7.89h0c.26.69-.05,1.46-.71,1.79Z"/>
    <polygon class="cls-10" points="93.78 129.5 71.12 129.5 75.07 104.8 90.11 104.8 93.78 129.5"/>
    <g>
      <polygon class="cls-2" points="123.75 408.17 108.46 406.73 93.12 310.76 79.34 220.02 116.28 224.05 122.09 240.18 121.64 298.73 123.75 408.17"/>
      <path class="cls-3" d="m57.35,405.12l-16.98-2.25,8.2-92.7-1.83-60.3,4.95-24.6,39.86-4.87,2.68,31.52c.11,1.34-.41,2.66-1.41,3.56l-5.61,5v11.4l-10.26,42.22-19.61,91.03Z"/>
    </g>
    <g>
      <path class="cls-26" d="m68.95,85.94c-8.59-1.38-15.59-5.92-17.34-12.14-3.14-11.16,12.41-21.41,14.12-22.54,13.3-8.77,36.34-12.67,43.34-1.49,4.89,7.81,1.03,21.52-9.16,32.94"/>
      <path class="cls-6" d="m81.32,114.42h0c-8.61,0-15.59-6.98-15.59-15.59v-29.55c0-1.11,1.03-1.93,2.11-1.68l26.93,6.23c.58.13,1.19-.04,1.61-.46l3.32-3.32c1.09-1.09,2.94-.32,2.94,1.22v21.84c0,11.77-9.54,21.31-21.31,21.31Z"/>
      <path class="cls-11" d="m96.43,93.82c0,2.35-.71,4.54-1.94,6.35-2.04,3.02-5.49,5-9.41,5-4.2,0-7.87-2.28-9.83-5.67"/>
      <g>
        <ellipse class="cls-19" cx="93.19" cy="85.93" rx="3.55" ry="2.65"/>
        <ellipse class="cls-26" cx="93.19" cy="85.93" rx="1.81" ry="1.35"/>
        <path class="cls-25" d="m88.96,85.34c0-1.64,1.89-2.96,4.23-2.96s4.23,1.33,4.23,2.96"/>
      </g>
      <g>
        <ellipse class="cls-19" cx="78.14" cy="85.79" rx="3.55" ry="2.65"/>
        <ellipse class="cls-26" cx="78.14" cy="85.79" rx="1.81" ry="1.35"/>
        <path class="cls-25" d="m73.91,85.2c0-1.64,1.89-2.96,4.23-2.96s4.23,1.33,4.23,2.96"/>
      </g>
      <path class="cls-26" d="m74.3,81.32l8.17-.46c.78-.04,1.54-.66,1.5-1.5-.03-.77-.66-1.55-1.5-1.5l-8.17.46c-.78.04-1.54.66-1.5,1.5.03.77.66,1.55,1.5,1.5h0Z"/>
      <path class="cls-26" d="m91.39,80.15c.97-.09,1.95-.11,2.93-.06.48.02.96.06,1.43.12.07,0,.46.04.06,0,.11,0,.23.03.34.05.27.04.53.09.79.14.77.15,1.66-.22,1.85-1.05.17-.74-.22-1.69-1.05-1.85-2.09-.41-4.23-.55-6.35-.36-.41.04-.76.14-1.06.44-.26.26-.46.69-.44,1.06.03.75.66,1.58,1.5,1.5h0Z"/>
      <path class="cls-16" d="m85.84,86.9l.53,2.18c0,.28,1.37,1.44,1.53,1.67l.76,1.71c.5.7.23,1.69-.56,2.04l-3.03,1.35"/>
    </g>
    <g>
      <path class="cls-23" d="m54.54,224.25l-3.36-20.49c.34-1.38-1.24-16.95-1.61-18.32l-8.53-45.39c-1.24-4.65,1.63-9.54,6.36-10.41.06-.01.12-.02.19-.03,1.42-.24,2.89-.06,4.24.45l20.38-9.38c11.57,12.05,11.79,10.22,20.5-.07l22.86,9.45c1.35-.51,2.81-.69,4.24-.45.07.01.13.02.2.04,4.72.87,7.59,5.74,6.37,10.38l-3.35,27.09c-.35,1.32-7.37,21.82-7.07,23.15l-.47,36.32c.1.45-61.01-1.97-60.92-2.33Z"/>
      <path class="cls-23" d="m43.83,250.57l-17.65.6-6.12-52.07c-.97-8.24-.04-16.59,2.71-24.42l12.25-34.87c2.32-8.19,11.21-12.48,17.96-9.48l8.07,1.86-17.61,52.72.38,65.68Z"/>
      <path class="cls-23" d="m175.03,199.33l-.64-21.58-31.94,1.96-11.32-40.24c-2.32-8.19-11.21-12.48-17.96-9.48l-8.07,1.86,17.69,61.26c2.2,7.63,9.7,12.46,17.56,11.31l34.68-5.08Z"/>
    </g>
    <g>
      <path class="cls-8" d="m53.12,213.65h63.11c.78,0,1.41.82,1.42,1.85l.13,9.74c.01,1.05-.63,1.92-1.42,1.92h-63.24c-.79,0-1.42-.84-1.42-1.88v-9.74c0-1.04.64-1.88,1.42-1.88Z"/>
      <rect class="cls-12" x="77.08" y="213.65" width="20.28" height="15.96" rx="4.01" ry="4.01"/>
    </g>
  </g>
  <g>
    <polygon class="cls-5" points="477.01 226.35 270.13 283.83 270.13 142.29 477.13 64.77 477.01 226.35"/>
    <g>
      <path class="cls-27" d="m263.13,226.46l4.27-18.33c1.5-6.2,3.73-12.3,6.74-18.01,2.97-5.74,6.59-11.19,10.81-16.19,4.19-5.03,8.98-9.61,14.28-13.65l60.51-44.92c4.44-3.3,10.72-2.37,14.02,2.07,3.3,4.44,2.37,10.72-2.07,14.02-.34.26-.7.49-1.07.69l-.06.03-65.78,36.45c-5.12,2.91-9.97,6.43-14.38,10.5-4.45,4.04-8.46,8.61-11.95,13.59-3.52,4.97-6.39,10.41-8.62,16.16l-6.65,17.61s-.02.02-.04.02c-.01,0-.02-.02-.02-.03Z"/>
      <path class="cls-17" d="m446.2,151.1l-5.23,19.4c-1.66,6.56-4.25,13-7.52,19.05-3.24,6.08-7.28,11.76-11.81,17.03-4.53,5.29-9.69,10.07-15.34,14.32-1.39,1.09-2.87,2.06-4.33,3.07-1.46,1-2.82,1.86-4.23,2.8l-8.39,5.52-16.79,11.04-33.57,22.08c-4.62,3.04-10.84,1.76-13.88-2.87-3.04-4.62-1.76-10.84,2.87-13.88.33-.22.73-.44,1.08-.62l36.05-17.75,18.02-8.87,9.01-4.44c1.48-.74,3.05-1.49,4.46-2.21,1.39-.73,2.82-1.42,4.17-2.24,5.49-3.14,10.72-6.89,15.48-11.21,4.76-4.32,9.17-9.11,12.92-14.43,3.77-5.31,6.97-11.02,9.39-17.2l7.59-18.6s.02-.02.04-.02c.01,0,.02.02.02.04Z"/>
      <g>
        <path class="cls-4" d="m398.37,157.47c.06,13.18-11.34,27.52-25.26,31.96-13.68,4.37-24.66-2.49-24.72-15.27-.07-12.78,10.81-26.94,24.49-31.71s25.43,1.84,25.49,15.02Z"/>
        <path class="cls-14" d="m382.08,195.52l31.41-28.94c3.86-3.49,8.98-4.21,11.64-1.63l.59.57-42.52,42.28c-2.66,2.64-5.92,4.52-9.2,5.3l-33.24,7.88c-1.48.35-2.93.45-4.28.31l-28.77-3.08c-1.48-.16-3.06,0-4.66.46l-20.14,5.8-.1-17.24,9-3.02c2.88-.97,5.66-2.89,7.88-5.45l5.03-5.8c.91-1.05,1.92-2,3.01-2.83l5.21-3.98c1.13-.87,2.34-1.59,3.57-2.16,3.14-1.43,9.39-4.04,14.01-4.4,6.47-.51,12.8-.26,18.53,4.34,6.38,5.13,21.02,2.35,21.02,2.35,0,0,5.93-2.8,9.02-3.56,3.5-.87,5.33.25,6.18,1.95s1.22,7.9-3.18,10.85c-5.85,3.93-33.2,9.78-33.2,9.78"/>
        <g class="cls-21">
          <line class="cls-15" x1="372.91" y1="150.66" x2="373.06" y2="180.44"/>
          <path class="cls-15" d="m380.62,153.64l-10.1,3.44c-2.87.98-5.18,3.95-5.17,6.65h0c.01,2.7,2.34,4.11,5.21,3.15l4.85-1.62c2.9-.97,5.27.45,5.28,3.18h0c.01,2.72-2.33,5.7-5.23,6.66l-10.04,3.29"/>
        </g>
      </g>
    </g>
  </g>
  <g>
    <polygon class="cls-20" points="477.13 476.08 270.13 418.88 270.13 283.83 477.13 226.63 477.13 476.08"/>
    <g>
      <polyline class="cls-9" points="290.73 299.94 289.76 387.26 289.71 391.49 409.73 412.95"/>
      <polyline class="cls-13" points="300.53 357.63 312 343.37 319.37 369.55 331.49 370.59 339.18 357.27 359.52 334.89 362.39 339.61 380.97 350.76 385.79 363.7 397.12 346.42 404.15 326.88"/>
      <polygon class="cls-9" points="290.81 293.22 293.34 299.72 288.17 300.58 290.81 293.22"/>
      <polygon class="cls-9" points="419.19 414.64 409.47 418.69 409.65 407.14 419.19 414.64"/>
    </g>
  </g>
  <path class="cls-1" d="m176.87,27.81s18.56-4.39,19.28,12.46c0,0,15.57-15.15,24.56-8.3"/>
  <path class="cls-7" d="m215.89,16.65s13.66-3.23,14.19,9.17c0,0,11.46-11.15,18.08-6.11"/>
  <path class="cls-7" d="m118.5,5.76s12.36-4.39,12.84,12.46c0,0,10.36-15.15,16.35-8.3"/>
</svg>