<?xml version="1.0" encoding="UTF-8"?>
<svg id="Layer_1" data-name="Layer 1" xmlns="http://www.w3.org/2000/svg" xmlns:xlink="http://www.w3.org/1999/xlink" viewBox="0 0 463.33 461.83">
  <defs>
    <style>
      .cls-1, .cls-2, .cls-3, .cls-4 {
        stroke-linecap: round;
        stroke-linejoin: round;
      }

      .cls-1, .cls-5, .cls-6 {
        stroke-width: .5px;
      }

      .cls-1, .cls-4, .cls-7, .cls-8, .cls-9, .cls-10 {
        fill: none;
      }

      .cls-1, .cls-4, .cls-11, .cls-12 {
        stroke: #8c6239;
      }

      .cls-13, .cls-11, .cls-12 {
        fill: #8c6239;
      }

      .cls-14 {
        fill: #603813;
        stroke: #603813;
      }

      .cls-14, .cls-5, .cls-6, .cls-7, .cls-15, .cls-16, .cls-11, .cls-17, .cls-18, .cls-8, .cls-19, .cls-10, .cls-12 {
        stroke-miterlimit: 10;
      }

      .cls-14, .cls-3, .cls-7, .cls-15, .cls-16, .cls-11 {
        stroke-width: 5px;
      }

      .cls-2 {
        stroke: #0071bc;
      }

      .cls-2, .cls-15, .cls-20 {
        fill: #0669bb;
      }

      .cls-2, .cls-10 {
        stroke-width: 8px;
      }

      .cls-5 {
        fill: url(#linear-gradient-2);
        stroke: url(#Gold_Dust-4);
      }

      .cls-3, .cls-21, .cls-16 {
        fill: #333;
      }

      .cls-3, .cls-16 {
        stroke: #333;
      }

      .cls-4, .cls-18, .cls-8, .cls-12 {
        stroke-width: 2px;
      }

      .cls-22 {
        filter: url(#drop-shadow-4);
      }

      .cls-6 {
        fill: url(#linear-gradient-3);
        stroke: url(#Gold_Dust-5);
      }

      .cls-7 {
        stroke: url(#Gold_Dust);
      }

      .cls-23 {
        filter: url(#drop-shadow-3);
      }

      .cls-24 {
        fill: #a67c52;
      }

      .cls-25 {
        filter: url(#drop-shadow-1);
      }

      .cls-26 {
        fill: url(#Jive);
        opacity: .22;
      }

      .cls-15, .cls-17, .cls-19, .cls-10 {
        stroke: #0669bb;
      }

      .cls-27 {
        fill: #e6e6e6;
      }

      .cls-28 {
        fill: #08042c;
      }

      .cls-29 {
        filter: url(#drop-shadow-5);
      }

      .cls-17, .cls-19 {
        fill: #fff;
      }

      .cls-18 {
        fill: url(#linear-gradient);
        stroke: url(#Gold_Dust-2);
      }

      .cls-8 {
        stroke: url(#Gold_Dust-3);
      }

      .cls-30 {
        filter: url(#drop-shadow-2);
      }

      .cls-31 {
        fill: #ccc;
      }

      .cls-19 {
        stroke-width: 3px;
      }

      .cls-32 {
        fill: #9ddcf9;
        opacity: .4;
      }

      .cls-33 {
        fill: #1a1a1a;
      }

      .cls-34 {
        fill: #00427e;
      }
    </style>
    <pattern id="Jive" x="0" y="0" width="108.34" height="109.64" patternTransform="translate(-25.68 -22.45)" patternUnits="userSpaceOnUse" viewBox="0 0 108.34 109.64">
      <g>
        <rect class="cls-9" width="108.34" height="109.64"/>
        <g>
          <path class="cls-34" d="m87.47,144.34c.02-.12.12-.21.25-.21,12.91-.13,24.75-3.27,33.97-11.51-8.03,5.56-22.94,7.51-31.53,3.62-.11-.05-.17-.17-.14-.29.03-.12.13-.2.25-.2,10.68.29,19.28-3.01,25.98-8.96-6.87-.42-12.57-4.74-12.56-9.84,0-.12.08-.22.2-.25.12-.03.23.04.28.14,1.12,2.49,4.75,3.78,8.58,2.88,4.18-.98,7-4.19,6.3-7.16-.47-2.01-2.44-3.4-4.95-3.79-.13-.02-.22-.13-.22-.26,0-.13.1-.23.23-.25,1.07-.1,2.18-.11,3.32,0,6.49.62,11.51,4.6,11.95,9.18,4.71-.55,8.88-3.16,10.38-6.77.04-.11.16-.17.28-.15.12.02.2.11.21.23.38,4.75-1.26,7.84-4.97,10.85,5.38-2.06,11.44-2.16,17.25.54.11.05.16.16.14.28-.02.12-.12.2-.24.2-4.88.19-8.42,1.76-11.73,5.07,18.25-5.13,33.08,6.2,27.95,23.05-.04.12-.15.19-.27.18-.12-.01-.22-.11-.23-.23-.92-9.71-7.7-16.12-17.86-17.08,5.39,2.06,11,6.98,11.56,15.53,0,.12-.07.23-.19.26-.12.03-.24-.03-.29-.14-2.8-6.15-8.3-9.27-14.16-9.81,6.33,2.58,10.4,8.6,11.57,16.42.02.12-.05.24-.17.28-.12.04-.25-.02-.3-.12-3.87-7.58-12.16-12.79-22.45-8.81-10.62,4.11-15.27,16.39-16.3,25.04-.01.12-.12.21-.24.22-.12,0-.23-.07-.26-.2-3.72-15.69,3.58-31.95,16.64-38.84-7.1,2-13.44,6.26-17.03,13.35-8.29,1.02-14,3.86-16.86,9.24-.06.11-.18.16-.3.12-.12-.03-.19-.14-.18-.27.18-2.11.94-6.33,4.07-8.27-6.96.01-12.51-.89-17.8-3.01-.11-.05-.18-.16-.15-.28Zm29.49,53.47c-.1-.07-.23-.05-.32.03-.09.08-.1.21-.05.31,1.62,2.8.14,6.81-3.05,6.81-5.72,0-8.47-10.77-7.6-20.59,2.16,5.76,4.03,8.05,7.35,10.79.09.08.23.08.32,0,.09-.08.12-.21.06-.32-4.86-9.08-5.9-16.07-5.9-24.09,1.46,5.96,3.2,9.32,8.13,14.38.09.09.22.1.33.03.1-.07.14-.2.09-.32-5.3-11.59-4.89-24.45-.95-34.26.04-.1.01-.21-.06-.28-.08-.07-.19-.09-.29-.04-5.21,2.55-8.26,4.23-12.75,10.39,1.36,7.4.23,11.05-3.17,17.2,3.94-9.92,1.84-23.89-8.19-29.59-.11-.06-.25-.03-.32.06-.08.1-.07.24.02.33,3.78,3.96,6.53,10.63,4.16,17.93,1.53-10.39-7.6-19.12-17.78-19.12-9.6,0-16.15,7.51-15.61,14.94.54,7.37,5.44,10.97,9.67,12.5.11.04.24,0,.3-.1.06-.1.05-.23-.03-.32-5.61-5.69-6.38-16.49,3.58-19.76-5.86,5.06-3.69,16.83,5.69,17.72.12.01.23-.06.26-.17.04-.11,0-.23-.1-.3-2.01-1.28-3.68-3.77-3.68-6.57,0-4.67,3.42-6.51,5.68-6.51,3.42,0,6.26,3.26,6.26,8.18,0,5.84-5.26,10.68-12.02,11.44-6.63.73-12.78-2.15-15.75-6.46-.07-.1-.2-.14-.31-.09-.11.05-.17.18-.14.29,3.02,11.7,16.8,16.88,26.89,9.51-6.61,7.5-17.01,7.61-25.72-.09-.09-.08-.23-.08-.32,0-.1.07-.13.21-.07.31,2.67,5.41,9.25,11.82,18.61,10.88,8.56-.86,13.52-9.01,14.52-15.69.56,8.52-1.39,14.54-8.75,20.15-.1.07-.13.21-.07.32.05.11.18.16.3.13,6.79-1.96,12.23-5.43,15.05-12.54,0,6.16-2.14,12.37-7.53,16.51-.1.07-.13.21-.07.31.05.11.18.16.3.13,3.45-.98,6.17-2.49,8.14-5.19,1.31,11.1,6.52,17.69,12.53,17.69,4.12,0,7.2-3.03,7.2-7.87,0-2.83-1.49-6.8-4.81-9.02Zm99.23-91.62c-3.16-3.9-9.54-5.39-16.43-3.99.51-4.3-.33-8.79-1.61-11.48-.05-.11-.17-.17-.29-.14-.12.03-.2.14-.19.26.37,8.77-4.62,15.84-13.45,18.91,6.91-4.76,8.93-14.19,5.64-19.07-.07-.1-.2-.14-.31-.09-.11.04-.18.16-.15.28.37,2.06-.61,4.68-2.71,6.73-2.91,2.81-6.85,3.45-8.81,1.43-1.96-2.03-1.2-5.95,1.71-8.76,1.06-1.03,2.26-1.76,3.45-2.18.11-.04.18-.15.17-.27-.01-.12-.11-.21-.23-.22-6.39-.55-10.77,3.25-13.52,7.88-2.79,4.71-7.57,8.41-13.21,7.67-.12-.02-.23.05-.27.17-.04.11,0,.24.11.3,2.8,1.68,5.87,2.38,9.86,1.05-5.79,4.91-14.05,7.74-21.84,5.23-.11-.04-.23,0-.29.1-.06.1-.05.22.03.31,5.91,6.56,17.69,6.7,25.11,1.37-3.04,4.32-7.07,7.48-14.29,8.48-.12.02-.21.11-.22.22-.01.12.05.23.16.27,8.29,3.08,16.6-.04,23.45-8.21-2.99,6.38-7.91,11.48-14.77,14.01-.12.04-.18.16-.16.28.02.12.12.21.24.21,3.94.08,7.49-.86,12.27-3.57-3.51,5.69-2.74,15.64,2.37,22.26.07.09.2.12.3.08.11-.05.17-.16.15-.27-1.18-7.2,1.3-15.33,5.61-19.64-2.15,7.63,0,14.58,5.9,19.64.07.06.17.08.26.04.09-.03.15-.11.16-.2,1.23-9.42,11.77-18.97,20.6-19.78.12-.01.22-.11.23-.24,0-.12-.07-.24-.2-.26-4.28-.97-8.69-.49-12.39,1.03,2.66-2.93,5.94-5.11,9.55-6.25.12-.04.19-.15.18-.27-.01-.12-.11-.21-.23-.22-4.51-.31-8.92,1.01-12.73,3.54,4.36-6.62,10.98-11.54,19.43-13.51.12-.03.2-.14.2-.26,0-.12-.1-.22-.23-.24-11.92-1.3-21.75,3.32-28.22,11.92,1.65-4.9,6.37-9.76,12.95-12.62,5.85-2.54,11.85-2.95,16.42-1.51.11.03.22,0,.29-.1.06-.09.06-.21-.01-.3Zm-52.9,75.57c4.81-10.49,4.46-18.69.59-29.05-.04-.12-.17-.18-.29-.16-.12.03-.21.14-.2.26.62,12.62-2.83,21.65-10.3,27.81,8.25-9.85,4.35-29.56-8.82-29.56-9.58,0-17.52,7.98-19.46,17.52-.02.12.04.24.16.29.12.04.25,0,.31-.11,2.84-4.76,7.41-7.85,12.46-7.85,8.13,0,10.54,6.47,10.54,11,0,6.19-4.93,11.34-8.71,11.34-3.44,0-5.04-2.82-5.04-4.93,0-3.9,3-7.17,6.38-8.16.12-.04.2-.15.18-.28-.02-.12-.12-.22-.25-.22-4.11-.03-7.58,1.86-9.63,5.57-.27-2.88-.27-4.69.64-7.72.04-.12-.02-.24-.13-.3-.11-.06-.24-.03-.32.07-7.36,9.39-3.84,25.62,1.98,32.36-5.53-3.98-10.42-12.63-10.34-24.39,0-.12-.08-.23-.21-.25-.12-.03-.24.04-.28.15-4.11,10.25-1.93,29.25,9.28,39.85-2.88.4-5.87.35-9.12-.69-.12-.04-.24.01-.3.12-.06.11-.04.24.06.32,4.09,3.46,9.81,4.54,15.27,4.54-4.7-5.5-3.14-16.55,4.36-16.55,5.35,0,7.77,8.3,3.65,12.78-.08.09-.09.21-.03.31.06.1.19.14.3.1,4.78-1.65,9.95-5.79,9.95-11.02s-4.81-9.39-11.8-9.05c8.82-2.51,18.05.27,22.88,6.25.07.09.21.12.31.07.11-.05.16-.18.13-.29-2.79-10.72-11.97-15.2-23.44-13.71,9.28-3.76,23.25-.48,29.42,7.31.07.09.2.12.31.07.11-.05.16-.17.14-.28-1.37-6.62-4.86-11.56-10.62-13.52Z"/>
          <path class="cls-32" d="m189.67,162.47c-.02.12-.12.21-.25.21-12.91.14-24.75,3.27-33.97,11.52,8.03-5.56,22.94-7.51,31.53-3.62.11.05.17.17.14.29-.03.12-.13.2-.25.2-10.68-.29-19.28,3.01-25.98,8.96,6.87.42,12.57,4.74,12.56,9.85,0,.12-.08.22-.2.25-.12.02-.23-.04-.28-.14-1.12-2.49-4.75-3.78-8.58-2.88-4.18.98-7,4.19-6.3,7.17.47,2.01,2.44,3.4,4.95,3.79.13.02.22.13.22.26,0,.13-.1.23-.23.25-1.07.1-2.18.11-3.32,0-6.49-.62-11.51-4.59-11.95-9.18-4.71.55-8.88,3.16-10.38,6.77-.04.11-.16.17-.28.15-.12-.02-.2-.11-.21-.23-.38-4.75,1.26-7.84,4.97-10.85-5.38,2.06-11.45,2.16-17.26-.54-.11-.05-.16-.17-.14-.28.02-.12.12-.2.24-.2,4.88-.19,8.42-1.76,11.73-5.07-18.26,5.13-33.09-6.2-27.96-23.05.04-.12.15-.19.27-.18.12.01.22.11.23.23.92,9.71,7.7,16.12,17.86,17.08-5.39-2.06-11-6.97-11.56-15.53,0-.12.07-.23.19-.26.12-.03.24.03.29.14,2.8,6.15,8.3,9.26,14.16,9.81-6.33-2.58-10.4-8.6-11.57-16.42-.02-.12.05-.24.17-.28.12-.04.25.02.3.13,3.87,7.58,12.16,12.79,22.45,8.81,10.62-4.11,15.27-16.38,16.3-25.04.02-.12.12-.22.24-.22.12,0,.23.08.26.2,3.72,15.69-3.58,31.95-16.64,38.84,7.09-2,13.44-6.26,17.03-13.35,8.29-1.02,14-3.86,16.86-9.24.06-.11.18-.16.29-.12.12.04.19.15.18.27-.18,2.11-.94,6.33-4.07,8.27,6.96-.01,12.51.89,17.8,3.01.11.04.18.16.15.28Zm-29.49-53.47c.1.06.23.05.32-.03.09-.08.1-.21.04-.31-1.62-2.8-.14-6.81,3.05-6.81,5.72,0,8.47,10.77,7.6,20.59-2.16-5.75-4.03-8.05-7.35-10.79-.09-.08-.23-.08-.32,0-.09.08-.12.21-.06.32,4.86,9.08,5.9,16.06,5.9,24.08-1.46-5.96-3.2-9.32-8.13-14.38-.09-.09-.22-.1-.32-.03-.1.07-.14.2-.09.31,5.3,11.59,4.89,24.45.95,34.26-.04.1-.01.21.06.28.08.07.19.09.29.04,5.2-2.55,8.26-4.23,12.75-10.39-1.36-7.4-.23-11.05,3.17-17.19-3.94,9.92-1.84,23.89,8.19,29.59.11.06.25.04.32-.06.08-.1.07-.24-.02-.33-3.78-3.96-6.53-10.63-4.16-17.93-1.53,10.39,7.6,19.11,17.78,19.11,9.6,0,16.15-7.51,15.61-14.94-.54-7.37-5.44-10.97-9.67-12.5-.11-.04-.24,0-.3.1-.06.1-.05.23.03.31,5.61,5.69,6.38,16.49-3.58,19.76,5.86-5.06,3.69-16.83-5.69-17.72-.12,0-.23.06-.26.17-.04.11,0,.23.1.3,2.01,1.28,3.68,3.77,3.68,6.57,0,4.67-3.42,6.51-5.68,6.51-3.42,0-6.26-3.26-6.26-8.18,0-5.84,5.26-10.68,12.02-11.43,6.63-.74,12.78,2.15,15.75,6.46.07.1.2.14.31.09.11-.05.17-.17.14-.29-3.02-11.7-16.8-16.88-26.89-9.51,6.61-7.5,17.01-7.61,25.72.09.09.08.22.09.32.01.1-.07.13-.21.07-.31-2.67-5.41-9.25-11.82-18.61-10.88-8.56.86-13.52,9.02-14.52,15.69-.56-8.52,1.39-14.54,8.75-20.14.1-.07.13-.21.07-.32s-.18-.16-.3-.13c-6.79,1.96-12.23,5.42-15.05,12.54,0-6.16,2.14-12.37,7.53-16.51.1-.07.13-.21.07-.32-.05-.11-.18-.16-.29-.13-3.45.98-6.17,2.49-8.14,5.18-1.31-11.1-6.52-17.69-12.53-17.69-4.12,0-7.21,3.03-7.21,7.87,0,2.83,1.49,6.8,4.81,9.02Zm-99.23,91.62c3.16,3.9,9.54,5.39,16.43,3.99-.51,4.3.33,8.79,1.61,11.49.05.11.17.17.29.14.12-.03.2-.14.19-.26-.38-8.77,4.62-15.84,13.45-18.91-6.91,4.76-8.93,14.19-5.64,19.06.07.1.2.14.31.09s.18-.16.15-.28c-.37-2.06.61-4.68,2.71-6.72,2.91-2.81,6.85-3.45,8.81-1.43,1.96,2.03,1.2,5.95-1.71,8.76-1.06,1.03-2.26,1.76-3.45,2.19-.11.04-.18.15-.17.27.01.12.11.21.23.22,6.39.55,10.77-3.25,13.52-7.88,2.79-4.71,7.57-8.41,13.21-7.67.12.02.23-.05.27-.17.04-.11,0-.24-.11-.3-2.8-1.68-5.87-2.38-9.86-1.05,5.79-4.91,14.05-7.74,21.84-5.23.11.04.23,0,.29-.1s.05-.22-.03-.31c-5.91-6.56-17.69-6.7-25.11-1.37,3.04-4.32,7.07-7.49,14.29-8.48.12-.02.21-.11.22-.22.01-.12-.05-.22-.16-.27-8.29-3.08-16.6.04-23.45,8.22,2.99-6.38,7.91-11.49,14.77-14.01.12-.04.18-.16.16-.28-.02-.12-.12-.21-.24-.21-3.94-.08-7.49.86-12.27,3.57,3.51-5.69,2.74-15.64-2.37-22.26-.07-.09-.2-.12-.3-.08-.11.05-.17.16-.15.28,1.18,7.2-1.3,15.33-5.61,19.64,2.15-7.63,0-14.58-5.9-19.64-.07-.06-.17-.08-.26-.04-.09.03-.15.11-.16.2-1.23,9.42-11.77,18.97-20.6,19.78-.12.01-.22.11-.23.24s.07.24.2.26c4.28.97,8.69.49,12.39-1.03-2.66,2.93-5.94,5.11-9.55,6.24-.12.04-.19.15-.18.27.01.12.11.22.23.22,4.51.31,8.92-1.01,12.73-3.54-4.36,6.62-10.98,11.54-19.43,13.51-.12.03-.2.14-.2.26,0,.12.1.22.23.24,11.92,1.3,21.75-3.32,28.22-11.92-1.65,4.9-6.37,9.76-12.95,12.62-5.85,2.55-11.85,2.95-16.42,1.51-.11-.03-.22,0-.29.1-.06.09-.06.22.01.3Zm52.9-75.57c-4.81,10.49-4.46,18.69-.59,29.05.04.12.17.19.29.16.12-.03.21-.14.2-.26-.62-12.62,2.83-21.65,10.3-27.81-8.25,9.85-4.35,29.56,8.82,29.56,9.59,0,17.51-7.98,19.45-17.53.03-.12-.04-.24-.16-.29-.12-.04-.25,0-.31.11-2.84,4.76-7.41,7.85-12.46,7.85-8.14,0-10.54-6.47-10.54-11,0-6.19,4.93-11.34,8.71-11.34,3.44,0,5.04,2.82,5.04,4.93,0,3.9-3,7.17-6.37,8.16-.12.04-.2.15-.18.28.02.12.12.22.25.22,4.11.03,7.58-1.85,9.63-5.57.27,2.88.27,4.69-.64,7.72-.04.12.02.24.12.3.11.05.24.03.32-.07,7.36-9.39,3.84-25.62-1.98-32.36,5.53,3.98,10.42,12.63,10.34,24.39,0,.12.08.23.21.25.12.02.24-.04.28-.15,4.11-10.25,1.93-29.25-9.28-39.85,2.88-.4,5.87-.35,9.12.69.12.04.24-.01.3-.12.06-.11.04-.24-.06-.32-4.09-3.46-9.81-4.54-15.26-4.54,4.7,5.5,3.14,16.55-4.35,16.55-5.35,0-7.78-8.3-3.65-12.78.08-.09.09-.21.03-.31-.06-.1-.19-.14-.3-.1-4.78,1.66-9.95,5.79-9.95,11.02s4.81,9.39,11.8,9.05c-8.82,2.5-18.05-.27-22.88-6.25-.07-.09-.21-.12-.31-.07-.11.05-.16.17-.13.29,2.79,10.71,11.97,15.2,23.44,13.71-9.28,3.76-23.25.48-29.42-7.31-.07-.09-.2-.12-.31-.07-.11.05-.16.17-.14.28,1.37,6.62,4.86,11.56,10.62,13.52Z"/>
        </g>
        <g>
          <path class="cls-34" d="m-20.87,144.34c.02-.12.12-.21.25-.21,12.91-.13,24.75-3.27,33.97-11.51-8.03,5.56-22.94,7.51-31.53,3.62-.11-.05-.17-.17-.14-.29.03-.12.13-.2.25-.2,10.68.29,19.28-3.01,25.98-8.96-6.87-.42-12.57-4.74-12.56-9.84,0-.12.08-.22.2-.25.12-.03.23.04.28.14,1.12,2.49,4.75,3.78,8.58,2.88,4.18-.98,7-4.19,6.3-7.16-.47-2.01-2.44-3.4-4.95-3.79-.13-.02-.22-.13-.22-.26,0-.13.1-.23.23-.25,1.07-.1,2.18-.11,3.32,0,6.49.62,11.51,4.6,11.95,9.18,4.71-.55,8.88-3.16,10.38-6.77.04-.11.16-.17.28-.15.12.02.2.11.21.23.38,4.75-1.26,7.84-4.97,10.85,5.38-2.06,11.45-2.16,17.26.54.11.05.16.16.14.28-.02.12-.12.2-.24.2-4.88.19-8.42,1.76-11.73,5.07,18.25-5.13,33.09,6.2,27.95,23.05-.04.12-.15.19-.27.18-.12-.01-.22-.11-.23-.23-.92-9.71-7.7-16.12-17.86-17.08,5.39,2.06,11,6.98,11.56,15.53,0,.12-.07.23-.19.26-.12.03-.24-.03-.29-.14-2.8-6.15-8.3-9.27-14.16-9.81,6.33,2.58,10.4,8.6,11.57,16.42.02.12-.05.24-.17.28-.12.04-.25-.02-.3-.12-3.87-7.58-12.16-12.79-22.45-8.81-10.62,4.11-15.27,16.39-16.3,25.04-.01.12-.12.21-.24.22-.12,0-.23-.07-.26-.2-3.72-15.69,3.58-31.95,16.64-38.84-7.1,2-13.44,6.26-17.03,13.35-8.29,1.02-14,3.86-16.86,9.24-.06.11-.18.16-.3.12-.12-.03-.19-.14-.18-.27.18-2.11.94-6.33,4.07-8.27-6.96.01-12.51-.89-17.8-3.01-.11-.05-.18-.16-.15-.28Zm29.49,53.47c-.1-.07-.23-.05-.32.03-.09.08-.1.21-.05.31,1.62,2.8.14,6.81-3.05,6.81-5.72,0-8.47-10.77-7.6-20.59,2.16,5.76,4.03,8.05,7.35,10.79.09.08.23.08.32,0,.09-.08.12-.21.06-.32-4.86-9.08-5.9-16.07-5.9-24.09,1.46,5.96,3.2,9.32,8.13,14.38.09.09.22.1.33.03.1-.07.14-.2.09-.32-5.3-11.59-4.89-24.45-.95-34.26.04-.1.01-.21-.06-.28-.08-.07-.19-.09-.29-.04-5.21,2.55-8.26,4.23-12.75,10.39,1.36,7.4.23,11.05-3.17,17.2,3.94-9.92,1.84-23.89-8.19-29.59-.11-.06-.25-.03-.32.06-.08.1-.07.24.02.33,3.78,3.96,6.53,10.63,4.16,17.93,1.53-10.39-7.6-19.12-17.78-19.12-9.6,0-16.15,7.51-15.61,14.94.54,7.37,5.44,10.97,9.67,12.5.11.04.24,0,.3-.1.06-.1.05-.23-.03-.32-5.61-5.69-6.38-16.49,3.58-19.76-5.86,5.06-3.69,16.83,5.69,17.72.12.01.23-.06.26-.17s0-.23-.1-.3c-2.01-1.28-3.68-3.77-3.68-6.57,0-4.67,3.42-6.51,5.68-6.51,3.42,0,6.26,3.26,6.26,8.18,0,5.84-5.26,10.68-12.02,11.44-6.63.73-12.78-2.15-15.75-6.46-.07-.1-.2-.14-.31-.09-.11.05-.17.18-.14.29,3.02,11.7,16.8,16.88,26.89,9.51-6.61,7.5-17.01,7.61-25.72-.09-.09-.08-.23-.08-.32,0-.1.07-.13.21-.07.31,2.67,5.41,9.25,11.82,18.61,10.88,8.56-.86,13.52-9.01,14.52-15.69.56,8.52-1.39,14.54-8.75,20.15-.1.07-.13.21-.07.32.05.11.18.16.3.13,6.79-1.96,12.23-5.43,15.05-12.54,0,6.16-2.14,12.37-7.53,16.51-.1.07-.13.21-.07.31s.18.16.3.13c3.45-.98,6.17-2.49,8.14-5.19,1.31,11.1,6.52,17.69,12.53,17.69,4.12,0,7.21-3.03,7.21-7.87,0-2.83-1.49-6.8-4.81-9.02Zm99.23-91.62c-3.16-3.9-9.54-5.39-16.43-3.99.51-4.3-.33-8.79-1.61-11.48-.05-.11-.17-.17-.29-.14-.12.03-.2.14-.19.26.37,8.77-4.62,15.84-13.45,18.91,6.91-4.76,8.93-14.19,5.64-19.07-.07-.1-.2-.14-.31-.09-.11.04-.18.16-.15.28.37,2.06-.61,4.68-2.71,6.73-2.91,2.81-6.85,3.45-8.81,1.43-1.96-2.03-1.2-5.95,1.71-8.76,1.06-1.03,2.26-1.76,3.45-2.18.11-.04.18-.15.17-.27-.01-.12-.11-.21-.23-.22-6.39-.55-10.77,3.25-13.52,7.88-2.79,4.71-7.57,8.41-13.21,7.67-.12-.02-.23.05-.27.17-.04.11,0,.24.11.3,2.8,1.68,5.87,2.38,9.86,1.05-5.79,4.91-14.05,7.74-21.84,5.23-.11-.04-.23,0-.29.1-.06.1-.05.22.03.31,5.91,6.56,17.69,6.7,25.11,1.37-3.04,4.32-7.07,7.48-14.29,8.48-.12.02-.2.11-.22.22-.01.12.05.23.16.27,8.29,3.08,16.6-.04,23.45-8.21-2.99,6.38-7.91,11.48-14.77,14.01-.12.04-.18.16-.16.28.02.12.12.21.24.21,3.94.08,7.49-.86,12.27-3.57-3.51,5.69-2.74,15.64,2.37,22.26.07.09.2.12.3.08.11-.05.17-.16.15-.27-1.18-7.2,1.3-15.33,5.61-19.64-2.15,7.63,0,14.58,5.9,19.64.07.06.17.08.26.04.09-.03.15-.11.16-.2,1.23-9.42,11.77-18.97,20.6-19.78.12-.01.22-.11.23-.24s-.07-.24-.2-.26c-4.28-.97-8.69-.49-12.39,1.03,2.66-2.93,5.94-5.11,9.55-6.25.12-.04.19-.15.18-.27-.01-.12-.11-.21-.23-.22-4.51-.31-8.92,1.01-12.73,3.54,4.36-6.62,10.98-11.54,19.43-13.51.12-.03.2-.14.2-.26,0-.12-.1-.22-.23-.24-11.92-1.3-21.75,3.32-28.22,11.92,1.65-4.9,6.37-9.76,12.95-12.62,5.85-2.54,11.85-2.95,16.42-1.51.11.03.22,0,.29-.1.06-.09.06-.21-.01-.3Zm-52.9,75.57c4.81-10.49,4.46-18.69.59-29.05-.04-.12-.17-.18-.29-.16-.12.03-.21.14-.2.26.62,12.62-2.83,21.65-10.3,27.81,8.25-9.85,4.35-29.56-8.82-29.56-9.59,0-17.52,7.98-19.46,17.52-.02.12.04.24.16.29.12.04.25,0,.31-.11,2.84-4.76,7.41-7.85,12.46-7.85,8.13,0,10.54,6.47,10.54,11,0,6.19-4.93,11.34-8.71,11.34-3.44,0-5.04-2.82-5.04-4.93,0-3.9,3-7.17,6.38-8.16.12-.04.2-.15.18-.28-.02-.12-.12-.22-.25-.22-4.11-.03-7.58,1.86-9.63,5.57-.27-2.88-.27-4.69.64-7.72.04-.12-.02-.24-.13-.3-.11-.06-.24-.03-.32.07-7.36,9.39-3.84,25.62,1.98,32.36-5.53-3.98-10.42-12.63-10.34-24.39,0-.12-.08-.23-.21-.25-.12-.03-.24.04-.28.15-4.11,10.25-1.93,29.25,9.28,39.85-2.88.4-5.87.35-9.12-.69-.12-.04-.24.01-.3.12-.06.11-.04.24.06.32,4.09,3.46,9.81,4.54,15.27,4.54-4.7-5.5-3.14-16.55,4.36-16.55,5.35,0,7.78,8.3,3.65,12.78-.08.09-.09.21-.03.31.06.1.19.14.3.1,4.78-1.65,9.95-5.79,9.95-11.02s-4.81-9.39-11.8-9.05c8.82-2.51,18.05.27,22.88,6.25.07.09.21.12.31.07.11-.05.16-.18.13-.29-2.79-10.72-11.97-15.2-23.44-13.71,9.28-3.76,23.25-.48,29.42,7.31.07.09.2.12.31.07.11-.05.16-.17.14-.28-1.37-6.62-4.86-11.56-10.62-13.52Z"/>
          <path class="cls-32" d="m81.33,162.47c-.02.12-.12.21-.25.21-12.91.14-24.75,3.27-33.97,11.52,8.03-5.56,22.94-7.51,31.53-3.62.11.05.17.17.14.29-.03.12-.13.2-.25.2-10.68-.29-19.28,3.01-25.98,8.96,6.87.42,12.57,4.74,12.56,9.85,0,.12-.08.22-.2.25-.12.02-.23-.04-.28-.14-1.12-2.49-4.75-3.78-8.58-2.88-4.18.98-7,4.19-6.3,7.17.47,2.01,2.44,3.4,4.95,3.79.13.02.22.13.22.26,0,.13-.1.23-.23.25-1.07.1-2.18.11-3.32,0-6.49-.62-11.51-4.59-11.95-9.18-4.71.55-8.88,3.16-10.38,6.77-.04.11-.16.17-.28.15-.12-.02-.2-.11-.21-.23-.38-4.75,1.26-7.84,4.97-10.85-5.38,2.06-11.45,2.16-17.26-.54-.11-.05-.16-.17-.14-.28.02-.12.12-.2.24-.2,4.88-.19,8.42-1.76,11.73-5.07-18.26,5.13-33.09-6.2-27.96-23.05.04-.12.15-.19.27-.18.12.01.22.11.23.23.92,9.71,7.7,16.12,17.86,17.08-5.39-2.06-11-6.97-11.56-15.53,0-.12.07-.23.19-.26.12-.03.24.03.29.14,2.8,6.15,8.3,9.26,14.16,9.81-6.33-2.58-10.4-8.6-11.57-16.42-.02-.12.05-.24.17-.28.12-.04.25.02.3.13,3.87,7.58,12.16,12.79,22.45,8.81,10.62-4.11,15.27-16.38,16.3-25.04.02-.12.12-.22.24-.22.12,0,.23.08.26.2,3.72,15.69-3.58,31.95-16.64,38.84,7.1-2,13.44-6.26,17.03-13.35,8.29-1.02,14-3.86,16.86-9.24.06-.11.18-.16.29-.12.12.04.19.15.18.27-.18,2.11-.94,6.33-4.07,8.27,6.96-.01,12.51.89,17.8,3.01.11.04.18.16.15.28Zm-29.49-53.47c.1.06.23.05.32-.03.09-.08.1-.21.04-.31-1.62-2.8-.14-6.81,3.05-6.81,5.72,0,8.47,10.77,7.6,20.59-2.16-5.75-4.03-8.05-7.35-10.79-.09-.08-.23-.08-.32,0-.09.08-.12.21-.06.32,4.86,9.08,5.9,16.06,5.9,24.08-1.46-5.96-3.2-9.32-8.13-14.38-.09-.09-.22-.1-.32-.03-.1.07-.14.2-.09.31,5.3,11.59,4.89,24.45.95,34.26-.04.1-.01.21.06.28.08.07.19.09.29.04,5.21-2.55,8.26-4.23,12.75-10.39-1.36-7.4-.23-11.05,3.17-17.19-3.94,9.92-1.84,23.89,8.19,29.59.11.06.25.04.32-.06.08-.1.07-.24-.02-.33-3.78-3.96-6.53-10.63-4.16-17.93-1.53,10.39,7.6,19.11,17.78,19.11,9.6,0,16.15-7.51,15.61-14.94-.54-7.37-5.44-10.97-9.67-12.5-.11-.04-.24,0-.3.1-.06.1-.05.23.03.31,5.61,5.69,6.38,16.49-3.58,19.76,5.86-5.06,3.69-16.83-5.69-17.72-.12,0-.23.06-.26.17-.04.11,0,.23.1.3,2.01,1.28,3.68,3.77,3.68,6.57,0,4.67-3.42,6.51-5.68,6.51-3.42,0-6.26-3.26-6.26-8.18,0-5.84,5.26-10.68,12.02-11.43,6.63-.74,12.78,2.15,15.75,6.46.07.1.2.14.31.09.11-.05.17-.17.14-.29-3.02-11.7-16.8-16.88-26.89-9.51,6.61-7.5,17.01-7.61,25.72.09.09.08.22.09.32.01.1-.07.13-.21.07-.31-2.67-5.41-9.25-11.82-18.61-10.88-8.56.86-13.52,9.02-14.52,15.69-.56-8.52,1.39-14.54,8.75-20.14.1-.07.13-.21.07-.32s-.18-.16-.3-.13c-6.79,1.96-12.23,5.42-15.05,12.54,0-6.16,2.14-12.37,7.53-16.51.1-.07.13-.21.07-.32-.05-.11-.18-.16-.29-.13-3.45.98-6.17,2.49-8.14,5.18-1.31-11.1-6.52-17.69-12.53-17.69-4.12,0-7.21,3.03-7.21,7.87,0,2.83,1.49,6.8,4.81,9.02Zm-99.23,91.62c3.16,3.9,9.54,5.39,16.43,3.99-.51,4.3.33,8.79,1.61,11.49.05.11.17.17.29.14s.2-.14.19-.26c-.38-8.77,4.62-15.84,13.45-18.91-6.91,4.76-8.93,14.19-5.64,19.06.07.1.2.14.31.09.11-.04.18-.16.15-.28-.37-2.06.61-4.68,2.71-6.72,2.91-2.81,6.85-3.45,8.81-1.43,1.96,2.03,1.2,5.95-1.71,8.76-1.06,1.03-2.26,1.76-3.45,2.19-.11.04-.18.15-.17.27.01.12.11.21.23.22,6.39.55,10.77-3.25,13.52-7.88,2.8-4.71,7.57-8.41,13.21-7.67.12.02.23-.05.27-.17.04-.11,0-.24-.11-.3-2.8-1.68-5.87-2.38-9.86-1.05,5.79-4.91,14.05-7.74,21.84-5.23.11.04.23,0,.29-.1s.05-.22-.03-.31c-5.91-6.56-17.69-6.7-25.11-1.37,3.04-4.32,7.07-7.49,14.29-8.48.12-.02.21-.11.22-.22.01-.12-.05-.22-.16-.27-8.29-3.08-16.6.04-23.45,8.22,2.99-6.38,7.91-11.49,14.77-14.01.12-.04.18-.16.16-.28-.02-.12-.12-.21-.24-.21-3.94-.08-7.49.86-12.27,3.57,3.51-5.69,2.74-15.64-2.37-22.26-.07-.09-.2-.12-.3-.08-.11.05-.17.16-.15.28,1.18,7.2-1.3,15.33-5.61,19.64,2.15-7.63,0-14.58-5.9-19.64-.07-.06-.17-.08-.26-.04-.09.03-.15.11-.16.2-1.23,9.42-11.77,18.97-20.6,19.78-.12.01-.22.11-.23.24s.07.24.2.26c4.28.97,8.69.49,12.39-1.03-2.66,2.93-5.94,5.11-9.55,6.24-.12.04-.19.15-.18.27.01.12.11.22.23.22,4.51.31,8.92-1.01,12.73-3.54-4.36,6.62-10.98,11.54-19.43,13.51-.12.03-.2.14-.2.26,0,.12.1.22.23.24,11.92,1.3,21.75-3.32,28.22-11.92-1.65,4.9-6.37,9.76-12.95,12.62-5.85,2.55-11.85,2.95-16.42,1.51-.11-.03-.22,0-.29.1-.06.09-.06.22.01.3ZM5.52,125.05c-4.81,10.49-4.46,18.69-.59,29.05.04.12.17.19.29.16.12-.03.21-.14.2-.26-.62-12.62,2.83-21.65,10.3-27.81-8.25,9.85-4.35,29.56,8.82,29.56,9.59,0,17.52-7.98,19.46-17.53.03-.12-.04-.24-.16-.29-.12-.04-.25,0-.31.11-2.84,4.76-7.41,7.85-12.46,7.85-8.14,0-10.54-6.47-10.54-11,0-6.19,4.93-11.34,8.71-11.34,3.44,0,5.04,2.82,5.04,4.93,0,3.9-3,7.17-6.38,8.16-.12.04-.2.15-.18.28s.12.22.25.22c4.11.03,7.58-1.85,9.63-5.57.27,2.88.27,4.69-.64,7.72-.04.12.02.24.12.3.11.05.24.03.32-.07,7.36-9.39,3.84-25.62-1.98-32.36,5.53,3.98,10.42,12.63,10.34,24.39,0,.12.08.23.21.25.12.02.24-.04.28-.15,4.11-10.25,1.93-29.25-9.28-39.85,2.88-.4,5.87-.35,9.12.69.12.04.24-.01.3-.12.06-.11.04-.24-.06-.32-4.09-3.46-9.81-4.54-15.27-4.54,4.7,5.5,3.14,16.55-4.35,16.55-5.35,0-7.78-8.3-3.65-12.78.08-.09.09-.21.03-.31-.06-.1-.19-.14-.3-.1-4.78,1.66-9.95,5.79-9.95,11.02s4.81,9.39,11.8,9.05c-8.82,2.5-18.05-.27-22.88-6.25-.07-.09-.21-.12-.31-.07-.11.05-.16.17-.13.29,2.79,10.71,11.97,15.2,23.44,13.71-9.28,3.76-23.25.48-29.42-7.31-.07-.09-.2-.12-.31-.07-.11.05-.16.17-.14.28,1.37,6.62,4.86,11.56,10.62,13.52Z"/>
        </g>
        <g>
          <path class="cls-34" d="m87.47,34.69c.02-.12.12-.21.25-.21,12.91-.13,24.75-3.27,33.97-11.51-8.03,5.56-22.94,7.51-31.53,3.62-.11-.05-.17-.17-.14-.29.03-.12.13-.2.25-.2,10.68.29,19.28-3.01,25.98-8.96-6.87-.42-12.57-4.74-12.56-9.84,0-.12.08-.22.2-.25.12-.03.23.04.28.14,1.12,2.49,4.75,3.78,8.58,2.88,4.18-.98,7-4.19,6.3-7.16-.47-2.01-2.44-3.4-4.95-3.79-.13-.02-.22-.13-.22-.26,0-.13.1-.23.23-.25,1.07-.1,2.18-.11,3.32,0,6.49.62,11.51,4.6,11.95,9.18,4.71-.55,8.88-3.16,10.38-6.77.04-.11.16-.17.28-.15.12.02.2.11.21.23.38,4.75-1.26,7.84-4.97,10.85,5.38-2.06,11.44-2.16,17.25.54.11.05.16.16.14.28-.02.12-.12.2-.24.2-4.88.19-8.42,1.76-11.73,5.07,18.25-5.13,33.08,6.2,27.95,23.05-.04.12-.15.19-.27.18-.12-.01-.22-.11-.23-.23-.92-9.71-7.7-16.12-17.86-17.08,5.39,2.06,11,6.98,11.56,15.53,0,.12-.07.23-.19.26-.12.03-.24-.03-.29-.14-2.8-6.15-8.3-9.27-14.16-9.81,6.33,2.58,10.4,8.6,11.57,16.42.02.12-.05.24-.17.28-.12.04-.25-.02-.3-.12-3.87-7.58-12.16-12.79-22.45-8.81-10.62,4.11-15.27,16.39-16.3,25.04-.01.12-.12.21-.24.22-.12,0-.23-.07-.26-.2-3.72-15.69,3.58-31.95,16.64-38.84-7.1,2-13.44,6.26-17.03,13.35-8.29,1.02-14,3.86-16.86,9.24-.06.11-.18.16-.3.12-.12-.03-.19-.14-.18-.27.18-2.11.94-6.33,4.07-8.27-6.96.01-12.51-.89-17.8-3.01-.11-.05-.18-.16-.15-.28Zm29.49,53.47c-.1-.07-.23-.05-.32.03-.09.08-.1.21-.05.31,1.62,2.8.14,6.81-3.05,6.81-5.72,0-8.47-10.77-7.6-20.59,2.16,5.76,4.03,8.05,7.35,10.79.09.08.23.08.32,0,.09-.08.12-.21.06-.32-4.86-9.08-5.9-16.07-5.9-24.09,1.46,5.96,3.2,9.32,8.13,14.38.09.09.22.1.33.03.1-.07.14-.2.09-.32-5.3-11.59-4.89-24.45-.95-34.26.04-.1.01-.21-.06-.28-.08-.07-.19-.09-.29-.04-5.21,2.55-8.26,4.23-12.75,10.39,1.36,7.4.23,11.05-3.17,17.2,3.94-9.92,1.84-23.89-8.19-29.59-.11-.06-.25-.03-.32.06-.08.1-.07.24.02.33,3.78,3.96,6.53,10.63,4.16,17.93,1.53-10.39-7.6-19.12-17.78-19.12-9.6,0-16.15,7.51-15.61,14.94.54,7.37,5.44,10.97,9.67,12.5.11.04.24,0,.3-.1.06-.1.05-.23-.03-.32-5.61-5.69-6.38-16.49,3.58-19.76-5.86,5.06-3.69,16.83,5.69,17.72.12.01.23-.06.26-.17.04-.11,0-.23-.1-.3-2.01-1.28-3.68-3.77-3.68-6.57,0-4.67,3.42-6.51,5.68-6.51,3.42,0,6.26,3.26,6.26,8.18,0,5.84-5.26,10.68-12.02,11.44-6.63.73-12.78-2.15-15.75-6.46-.07-.1-.2-.14-.31-.09-.11.05-.17.18-.14.29,3.02,11.7,16.8,16.88,26.89,9.51-6.61,7.5-17.01,7.61-25.72-.09-.09-.08-.23-.08-.32,0-.1.07-.13.21-.07.31,2.67,5.41,9.25,11.82,18.61,10.88,8.56-.86,13.52-9.01,14.52-15.69.56,8.52-1.39,14.54-8.75,20.15-.1.07-.13.21-.07.32.05.11.18.16.3.13,6.79-1.96,12.23-5.43,15.05-12.54,0,6.16-2.14,12.37-7.53,16.51-.1.07-.13.21-.07.31.05.11.18.16.3.13,3.45-.98,6.17-2.49,8.14-5.19,1.31,11.1,6.52,17.69,12.53,17.69,4.12,0,7.2-3.03,7.2-7.87,0-2.83-1.49-6.8-4.81-9.02ZM216.19-3.45c-3.16-3.9-9.54-5.39-16.43-3.99.51-4.3-.33-8.79-1.61-11.48-.05-.11-.17-.17-.29-.14-.12.03-.2.14-.19.26.37,8.77-4.62,15.84-13.45,18.91,6.91-4.76,8.93-14.19,5.64-19.07-.07-.1-.2-.14-.31-.09-.11.04-.18.16-.15.28.37,2.06-.61,4.68-2.71,6.73-2.91,2.81-6.85,3.45-8.81,1.43-1.96-2.03-1.2-5.95,1.71-8.76,1.06-1.03,2.26-1.76,3.45-2.18.11-.04.18-.15.17-.27-.01-.12-.11-.21-.23-.22-6.39-.55-10.77,3.25-13.52,7.88-2.79,4.71-7.57,8.41-13.21,7.67-.12-.02-.23.05-.27.17-.04.11,0,.24.11.3,2.8,1.68,5.87,2.38,9.86,1.05-5.79,4.91-14.05,7.74-21.84,5.23-.11-.04-.23,0-.29.1-.06.1-.05.22.03.31,5.91,6.56,17.69,6.7,25.11,1.37-3.04,4.32-7.07,7.48-14.29,8.48-.12.02-.21.11-.22.22-.01.12.05.23.16.27,8.29,3.08,16.6-.04,23.45-8.21-2.99,6.38-7.91,11.48-14.77,14.01-.12.04-.18.16-.16.28.02.12.12.21.24.21,3.94.08,7.49-.86,12.27-3.57-3.51,5.69-2.74,15.64,2.37,22.26.07.09.2.12.3.08.11-.05.17-.16.15-.27-1.18-7.2,1.3-15.33,5.61-19.64-2.15,7.63,0,14.58,5.9,19.64.07.06.17.08.26.04.09-.03.15-.11.16-.2,1.23-9.42,11.77-18.97,20.6-19.78.12-.01.22-.11.23-.24,0-.12-.07-.24-.2-.26-4.28-.97-8.69-.49-12.39,1.03,2.66-2.93,5.94-5.11,9.55-6.25.12-.04.19-.15.18-.27-.01-.12-.11-.21-.23-.22-4.51-.31-8.92,1.01-12.73,3.54,4.36-6.62,10.98-11.54,19.43-13.51.12-.03.2-.14.2-.26,0-.12-.1-.22-.23-.24-11.92-1.3-21.75,3.32-28.22,11.92,1.65-4.9,6.37-9.76,12.95-12.62,5.85-2.54,11.85-2.95,16.42-1.51.11.03.22,0,.29-.1.06-.09.06-.21-.01-.3Zm-52.9,75.57c4.81-10.49,4.46-18.69.59-29.05-.04-.12-.17-.18-.29-.16-.12.03-.21.14-.2.26.62,12.62-2.83,21.65-10.3,27.81,8.25-9.85,4.35-29.56-8.82-29.56-9.58,0-17.52,7.98-19.46,17.52-.02.12.04.24.16.29.12.04.25,0,.31-.11,2.84-4.76,7.41-7.85,12.46-7.85,8.13,0,10.54,6.47,10.54,11,0,6.19-4.93,11.34-8.71,11.34-3.44,0-5.04-2.82-5.04-4.93,0-3.9,3-7.17,6.38-8.16.12-.04.2-.15.18-.28-.02-.12-.12-.22-.25-.22-4.11-.03-7.58,1.86-9.63,5.57-.27-2.87-.27-4.69.64-7.72.04-.12-.02-.24-.13-.3-.11-.06-.24-.03-.32.07-7.36,9.39-3.84,25.62,1.98,32.36-5.53-3.98-10.42-12.63-10.34-24.39,0-.12-.08-.23-.21-.25-.12-.03-.24.04-.28.15-4.11,10.25-1.93,29.25,9.28,39.85-2.88.4-5.87.35-9.12-.69-.12-.04-.24.01-.3.12-.06.11-.04.24.06.32,4.09,3.46,9.81,4.54,15.27,4.54-4.7-5.5-3.14-16.55,4.36-16.55,5.35,0,7.77,8.3,3.65,12.78-.08.09-.09.21-.03.31.06.1.19.14.3.1,4.78-1.65,9.95-5.79,9.95-11.02s-4.81-9.39-11.8-9.05c8.82-2.51,18.05.27,22.88,6.25.07.09.21.12.31.07.11-.05.16-.18.13-.29-2.79-10.72-11.97-15.2-23.44-13.71,9.28-3.76,23.25-.48,29.42,7.31.07.09.2.12.31.07.11-.05.16-.17.14-.28-1.37-6.62-4.86-11.56-10.62-13.52Z"/>
          <path class="cls-32" d="m189.67,52.83c-.02.12-.12.21-.25.21-12.91.14-24.75,3.27-33.97,11.52,8.03-5.56,22.94-7.51,31.53-3.62.11.05.17.17.14.29-.03.12-.13.2-.25.2-10.68-.29-19.28,3.01-25.98,8.96,6.87.42,12.57,4.74,12.56,9.85,0,.12-.08.22-.2.25-.12.02-.23-.04-.28-.14-1.12-2.49-4.75-3.78-8.58-2.88-4.18.98-7,4.19-6.3,7.17.47,2.01,2.44,3.4,4.95,3.79.13.02.22.13.22.26,0,.13-.1.23-.23.25-1.07.1-2.18.11-3.32,0-6.49-.62-11.51-4.59-11.95-9.18-4.71.55-8.88,3.16-10.38,6.77-.04.11-.16.17-.28.15-.12-.02-.2-.11-.21-.23-.38-4.75,1.26-7.84,4.97-10.85-5.38,2.06-11.45,2.16-17.26-.54-.11-.05-.16-.17-.14-.28.02-.12.12-.2.24-.2,4.88-.19,8.42-1.76,11.73-5.07-18.26,5.13-33.09-6.2-27.96-23.05.04-.12.15-.19.27-.18.12.01.22.11.23.23.92,9.71,7.7,16.12,17.86,17.08-5.39-2.06-11-6.97-11.56-15.53,0-.12.07-.23.19-.26.12-.03.24.03.29.14,2.8,6.15,8.3,9.26,14.16,9.81-6.33-2.58-10.4-8.6-11.57-16.42-.02-.12.05-.24.17-.28.12-.04.25.02.3.13,3.87,7.58,12.16,12.79,22.45,8.81,10.62-4.11,15.27-16.38,16.3-25.04.02-.12.12-.22.24-.22.12,0,.23.08.26.2,3.72,15.69-3.58,31.95-16.64,38.84,7.09-2,13.44-6.26,17.03-13.35,8.29-1.02,14-3.86,16.86-9.24.06-.11.18-.16.29-.12.12.04.19.15.18.27-.18,2.11-.94,6.33-4.07,8.27,6.96-.01,12.51.89,17.8,3.01.11.04.18.16.15.28ZM160.18-.64c.1.06.23.05.32-.03.09-.08.1-.21.04-.31-1.62-2.8-.14-6.81,3.05-6.81,5.72,0,8.47,10.77,7.6,20.59-2.16-5.75-4.03-8.05-7.35-10.79-.09-.08-.23-.08-.32,0-.09.08-.12.21-.06.32,4.86,9.08,5.9,16.06,5.9,24.08-1.46-5.96-3.2-9.32-8.13-14.38-.09-.09-.22-.1-.32-.03-.1.07-.14.2-.09.31,5.3,11.59,4.89,24.45.95,34.26-.04.1-.01.21.06.28.08.07.19.09.29.04,5.2-2.55,8.26-4.23,12.75-10.39-1.36-7.4-.23-11.05,3.17-17.19-3.94,9.92-1.84,23.89,8.19,29.59.11.06.25.04.32-.06.08-.1.07-.24-.02-.33-3.78-3.96-6.53-10.63-4.16-17.93-1.53,10.39,7.6,19.11,17.78,19.11,9.6,0,16.15-7.51,15.61-14.94-.54-7.37-5.44-10.97-9.67-12.5-.11-.04-.24,0-.3.1-.06.1-.05.23.03.31,5.61,5.69,6.38,16.49-3.58,19.76,5.86-5.06,3.69-16.83-5.69-17.72-.12,0-.23.06-.26.17-.04.11,0,.23.1.29,2.01,1.28,3.68,3.77,3.68,6.57,0,4.67-3.42,6.51-5.68,6.51-3.42,0-6.26-3.26-6.26-8.18,0-5.84,5.26-10.68,12.02-11.43,6.63-.74,12.78,2.15,15.75,6.46.07.1.2.14.31.09.11-.05.17-.17.14-.29-3.02-11.7-16.8-16.88-26.89-9.51,6.61-7.5,17.01-7.61,25.72.09.09.08.22.09.32.01.1-.07.13-.21.07-.31-2.67-5.41-9.25-11.82-18.61-10.88-8.56.86-13.52,9.02-14.52,15.69-.56-8.52,1.39-14.54,8.75-20.14.1-.07.13-.21.07-.32s-.18-.16-.3-.13c-6.79,1.96-12.23,5.42-15.05,12.54,0-6.16,2.14-12.37,7.53-16.51.1-.07.13-.21.07-.32-.05-.11-.18-.16-.29-.13-3.45.98-6.17,2.49-8.14,5.18-1.31-11.1-6.52-17.69-12.53-17.69-4.12,0-7.21,3.03-7.21,7.87,0,2.83,1.49,6.8,4.81,9.02ZM60.95,90.98c3.16,3.9,9.54,5.39,16.43,3.99-.51,4.3.33,8.79,1.61,11.49.05.11.17.17.29.14.12-.03.2-.14.19-.26-.38-8.77,4.62-15.84,13.45-18.91-6.91,4.76-8.93,14.19-5.64,19.06.07.1.2.14.31.09.11-.04.18-.16.15-.28-.37-2.06.61-4.68,2.71-6.72,2.91-2.81,6.85-3.45,8.81-1.43,1.96,2.03,1.2,5.95-1.71,8.76-1.06,1.03-2.26,1.76-3.45,2.19-.11.04-.18.15-.17.27.01.12.11.21.23.22,6.39.55,10.77-3.25,13.52-7.88,2.79-4.71,7.57-8.41,13.21-7.67.12.02.23-.05.27-.17.04-.11,0-.24-.11-.3-2.8-1.68-5.87-2.38-9.86-1.05,5.79-4.91,14.05-7.74,21.84-5.23.11.04.23,0,.29-.1.06-.1.05-.22-.03-.31-5.91-6.56-17.69-6.7-25.11-1.37,3.04-4.32,7.07-7.49,14.29-8.48.12-.02.21-.11.22-.22.01-.12-.05-.22-.16-.27-8.29-3.08-16.6.04-23.45,8.22,2.99-6.38,7.91-11.49,14.77-14.01.12-.04.18-.16.16-.28-.02-.12-.12-.21-.24-.21-3.94-.08-7.49.86-12.27,3.57,3.51-5.69,2.74-15.64-2.37-22.26-.07-.09-.2-.12-.3-.08-.11.05-.17.16-.15.28,1.18,7.2-1.3,15.33-5.61,19.64,2.15-7.63,0-14.58-5.9-19.64-.07-.06-.17-.08-.26-.04-.09.03-.15.11-.16.2-1.23,9.42-11.77,18.97-20.6,19.78-.12.01-.22.11-.23.24s.07.24.2.26c4.28.97,8.69.49,12.39-1.03-2.66,2.93-5.94,5.11-9.55,6.24-.12.04-.19.15-.18.27.01.12.11.22.23.22,4.51.31,8.92-1.01,12.73-3.54-4.36,6.62-10.98,11.54-19.43,13.51-.12.03-.2.14-.2.26,0,.12.1.22.23.24,11.92,1.3,21.75-3.32,28.22-11.92-1.65,4.9-6.37,9.76-12.95,12.62-5.85,2.54-11.85,2.95-16.42,1.51-.11-.03-.22,0-.29.1-.06.09-.06.22.01.3ZM113.86,15.41c-4.81,10.49-4.46,18.69-.59,29.05.04.12.17.19.29.16.12-.03.21-.14.2-.26-.62-12.62,2.83-21.65,10.3-27.81-8.25,9.85-4.35,29.56,8.82,29.56,9.59,0,17.51-7.98,19.45-17.53.03-.12-.04-.24-.16-.29-.12-.04-.25,0-.31.11-2.84,4.76-7.41,7.85-12.46,7.85-8.14,0-10.54-6.47-10.54-11,0-6.19,4.93-11.34,8.71-11.34,3.44,0,5.04,2.82,5.04,4.93,0,3.9-3,7.17-6.37,8.16-.12.04-.2.15-.18.28.02.12.12.22.25.22,4.11.03,7.58-1.85,9.63-5.57.27,2.87.27,4.69-.64,7.72-.04.12.02.24.12.3.11.05.24.03.32-.07,7.36-9.39,3.84-25.62-1.98-32.36,5.53,3.98,10.42,12.63,10.34,24.39,0,.12.08.23.21.25.12.02.24-.04.28-.15,4.11-10.25,1.93-29.25-9.28-39.85,2.88-.4,5.87-.35,9.12.69.12.04.24-.01.3-.12.06-.11.04-.24-.06-.32-4.09-3.46-9.81-4.54-15.26-4.54,4.7,5.5,3.14,16.55-4.35,16.55-5.35,0-7.78-8.3-3.65-12.78.08-.09.09-.21.03-.31-.06-.1-.19-.14-.3-.1-4.78,1.66-9.95,5.79-9.95,11.02s4.81,9.39,11.8,9.05c-8.82,2.5-18.05-.27-22.88-6.25-.07-.09-.21-.12-.31-.07-.11.05-.16.17-.13.29,2.79,10.71,11.97,15.2,23.44,13.71-9.28,3.76-23.25.48-29.42-7.31-.07-.09-.2-.12-.31-.07-.11.05-.16.17-.14.28,1.37,6.62,4.86,11.56,10.62,13.52Z"/>
        </g>
        <g>
          <path class="cls-34" d="m-20.87,34.69c.02-.12.12-.21.25-.21,12.91-.13,24.75-3.27,33.97-11.51-8.03,5.56-22.94,7.51-31.53,3.62-.11-.05-.17-.17-.14-.29.03-.12.13-.2.25-.2,10.68.29,19.28-3.01,25.98-8.96-6.87-.42-12.57-4.74-12.56-9.84,0-.12.08-.22.2-.25.12-.03.23.04.28.14,1.12,2.49,4.75,3.78,8.58,2.88,4.18-.98,7-4.19,6.3-7.16-.47-2.01-2.44-3.4-4.95-3.79-.13-.02-.22-.13-.22-.26,0-.13.1-.23.23-.25,1.07-.1,2.18-.11,3.32,0,6.49.62,11.51,4.6,11.95,9.18,4.71-.55,8.88-3.16,10.38-6.77.04-.11.16-.17.28-.15.12.02.2.11.21.23.38,4.75-1.26,7.84-4.97,10.85,5.38-2.06,11.45-2.16,17.26.54.11.05.16.16.14.28-.02.12-.12.2-.24.2-4.88.19-8.42,1.76-11.73,5.07,18.25-5.13,33.09,6.2,27.95,23.05-.04.12-.15.19-.27.18-.12-.01-.22-.11-.23-.23-.92-9.71-7.7-16.12-17.86-17.08,5.39,2.06,11,6.98,11.56,15.53,0,.12-.07.23-.19.26-.12.03-.24-.03-.29-.14-2.8-6.15-8.3-9.27-14.16-9.81,6.33,2.58,10.4,8.6,11.57,16.42.02.12-.05.24-.17.28-.12.04-.25-.02-.3-.12-3.87-7.58-12.16-12.79-22.45-8.81-10.62,4.11-15.27,16.39-16.3,25.04-.01.12-.12.21-.24.22-.12,0-.23-.07-.26-.2-3.72-15.69,3.58-31.95,16.64-38.84-7.1,2-13.44,6.26-17.03,13.35-8.29,1.02-14,3.86-16.86,9.24-.06.11-.18.16-.3.12-.12-.03-.19-.14-.18-.27.18-2.11.94-6.33,4.07-8.27-6.96.01-12.51-.89-17.8-3.01-.11-.05-.18-.16-.15-.28Zm29.49,53.47c-.1-.07-.23-.05-.32.03-.09.08-.1.21-.05.31,1.62,2.8.14,6.81-3.05,6.81-5.72,0-8.47-10.77-7.6-20.59,2.16,5.76,4.03,8.05,7.35,10.79.09.08.23.08.32,0,.09-.08.12-.21.06-.32C.49,76.12-.55,69.14-.55,61.12c1.46,5.96,3.2,9.32,8.13,14.38.09.09.22.1.33.03.1-.07.14-.2.09-.32-5.3-11.59-4.89-24.45-.95-34.26.04-.1.01-.21-.06-.28-.08-.07-.19-.09-.29-.04-5.21,2.55-8.26,4.23-12.75,10.39,1.36,7.4.23,11.05-3.17,17.2,3.94-9.92,1.84-23.89-8.19-29.59-.11-.06-.25-.03-.32.06-.08.1-.07.24.02.33,3.78,3.96,6.53,10.63,4.16,17.93,1.53-10.39-7.6-19.12-17.78-19.12-9.6,0-16.15,7.51-15.61,14.94.54,7.37,5.44,10.97,9.67,12.5.11.04.24,0,.3-.1.06-.1.05-.23-.03-.32-5.61-5.69-6.38-16.49,3.58-19.76-5.86,5.06-3.69,16.83,5.69,17.72.12.01.23-.06.26-.17s0-.23-.1-.3c-2.01-1.28-3.68-3.77-3.68-6.57,0-4.67,3.42-6.51,5.68-6.51,3.42,0,6.26,3.26,6.26,8.18,0,5.84-5.26,10.68-12.02,11.44-6.63.73-12.78-2.15-15.75-6.46-.07-.1-.2-.14-.31-.09-.11.05-.17.18-.14.29,3.02,11.7,16.8,16.88,26.89,9.51-6.61,7.5-17.01,7.61-25.72-.09-.09-.08-.23-.08-.32,0-.1.07-.13.21-.07.31,2.67,5.41,9.25,11.82,18.61,10.88,8.56-.86,13.52-9.01,14.52-15.69.56,8.52-1.39,14.54-8.75,20.15-.1.07-.13.21-.07.32.05.11.18.16.3.13,6.79-1.96,12.23-5.43,15.05-12.54,0,6.16-2.14,12.37-7.53,16.51-.1.07-.13.21-.07.31s.18.16.3.13c3.45-.98,6.17-2.49,8.14-5.19,1.31,11.1,6.52,17.69,12.53,17.69,4.12,0,7.21-3.03,7.21-7.87,0-2.83-1.49-6.8-4.81-9.02ZM107.85-3.45c-3.16-3.9-9.54-5.39-16.43-3.99.51-4.3-.33-8.79-1.61-11.48-.05-.11-.17-.17-.29-.14-.12.03-.2.14-.19.26.37,8.77-4.62,15.84-13.45,18.91,6.91-4.76,8.93-14.19,5.64-19.07-.07-.1-.2-.14-.31-.09-.11.04-.18.16-.15.28.37,2.06-.61,4.68-2.71,6.73-2.91,2.81-6.85,3.45-8.81,1.43-1.96-2.03-1.2-5.95,1.71-8.76,1.06-1.03,2.26-1.76,3.45-2.18.11-.04.18-.15.17-.27-.01-.12-.11-.21-.23-.22-6.39-.55-10.77,3.25-13.52,7.88-2.79,4.71-7.57,8.41-13.21,7.67-.12-.02-.23.05-.27.17-.04.11,0,.24.11.3,2.8,1.68,5.87,2.38,9.86,1.05C51.8-.08,43.55,2.75,35.75.24c-.11-.04-.23,0-.29.1-.06.1-.05.22.03.31,5.91,6.56,17.69,6.7,25.11,1.37-3.04,4.32-7.07,7.48-14.29,8.48-.12.02-.2.11-.22.22-.01.12.05.23.16.27,8.29,3.08,16.6-.04,23.45-8.21-2.99,6.38-7.91,11.48-14.77,14.01-.12.04-.18.16-.16.28.02.12.12.21.24.21,3.94.08,7.49-.86,12.27-3.57-3.51,5.69-2.74,15.64,2.37,22.26.07.09.2.12.3.08.11-.05.17-.16.15-.27-1.18-7.2,1.3-15.33,5.61-19.64-2.15,7.63,0,14.58,5.9,19.64.07.06.17.08.26.04.09-.03.15-.11.16-.2,1.23-9.42,11.77-18.97,20.6-19.78.12-.01.22-.11.23-.24s-.07-.24-.2-.26c-4.28-.97-8.69-.49-12.39,1.03,2.66-2.93,5.94-5.11,9.55-6.25.12-.04.19-.15.18-.27-.01-.12-.11-.21-.23-.22-4.51-.31-8.92,1.01-12.73,3.54,4.36-6.62,10.98-11.54,19.43-13.51.12-.03.2-.14.2-.26,0-.12-.1-.22-.23-.24-11.92-1.3-21.75,3.32-28.22,11.92,1.65-4.9,6.37-9.76,12.95-12.62,5.85-2.54,11.85-2.95,16.42-1.51.11.03.22,0,.29-.1.06-.09.06-.21-.01-.3Zm-52.9,75.57c4.81-10.49,4.46-18.69.59-29.05-.04-.12-.17-.18-.29-.16-.12.03-.21.14-.2.26.62,12.62-2.83,21.65-10.3,27.81,8.25-9.85,4.35-29.56-8.82-29.56-9.59,0-17.52,7.98-19.46,17.52-.02.12.04.24.16.29.12.04.25,0,.31-.11,2.84-4.76,7.41-7.85,12.46-7.85,8.13,0,10.54,6.47,10.54,11,0,6.19-4.93,11.34-8.71,11.34-3.44,0-5.04-2.82-5.04-4.93,0-3.9,3-7.17,6.38-8.16.12-.04.2-.15.18-.28-.02-.12-.12-.22-.25-.22-4.11-.03-7.58,1.86-9.63,5.57-.27-2.87-.27-4.69.64-7.72.04-.12-.02-.24-.13-.3-.11-.06-.24-.03-.32.07-7.36,9.39-3.84,25.62,1.98,32.36-5.53-3.98-10.42-12.63-10.34-24.39,0-.12-.08-.23-.21-.25-.12-.03-.24.04-.28.15-4.11,10.25-1.93,29.25,9.28,39.85-2.88.4-5.87.35-9.12-.69-.12-.04-.24.01-.3.12-.06.11-.04.24.06.32,4.09,3.46,9.81,4.54,15.27,4.54-4.7-5.5-3.14-16.55,4.36-16.55,5.35,0,7.78,8.3,3.65,12.78-.08.09-.09.21-.03.31.06.1.19.14.3.1,4.78-1.65,9.95-5.79,9.95-11.02s-4.81-9.39-11.8-9.05c8.82-2.51,18.05.27,22.88,6.25.07.09.21.12.31.07.11-.05.16-.18.13-.29-2.79-10.72-11.97-15.2-23.44-13.71,9.28-3.76,23.25-.48,29.42,7.31.07.09.2.12.31.07.11-.05.16-.17.14-.28-1.37-6.62-4.86-11.56-10.62-13.52Z"/>
          <path class="cls-32" d="m81.33,52.83c-.02.12-.12.21-.25.21-12.91.14-24.75,3.27-33.97,11.52,8.03-5.56,22.94-7.51,31.53-3.62.11.05.17.17.14.29-.03.12-.13.2-.25.2-10.68-.29-19.28,3.01-25.98,8.96,6.87.42,12.57,4.74,12.56,9.85,0,.12-.08.22-.2.25-.12.02-.23-.04-.28-.14-1.12-2.49-4.75-3.78-8.58-2.88-4.18.98-7,4.19-6.3,7.17.47,2.01,2.44,3.4,4.95,3.79.13.02.22.13.22.26,0,.13-.1.23-.23.25-1.07.1-2.18.11-3.32,0-6.49-.62-11.51-4.59-11.95-9.18-4.71.55-8.88,3.16-10.38,6.77-.04.11-.16.17-.28.15-.12-.02-.2-.11-.21-.23-.38-4.75,1.26-7.84,4.97-10.85-5.38,2.06-11.45,2.16-17.26-.54-.11-.05-.16-.17-.14-.28.02-.12.12-.2.24-.2,4.88-.19,8.42-1.76,11.73-5.07C9.82,74.61-5.01,63.28.12,46.43c.04-.12.15-.19.27-.18.12.01.22.11.23.23.92,9.71,7.7,16.12,17.86,17.08-5.39-2.06-11-6.97-11.56-15.53,0-.12.07-.23.19-.26.12-.03.24.03.29.14,2.8,6.15,8.3,9.26,14.16,9.81-6.33-2.58-10.4-8.6-11.57-16.42-.02-.12.05-.24.17-.28.12-.04.25.02.3.13,3.87,7.58,12.16,12.79,22.45,8.81,10.62-4.11,15.27-16.38,16.3-25.04.02-.12.12-.22.24-.22.12,0,.23.08.26.2,3.72,15.69-3.58,31.95-16.64,38.84,7.1-2,13.44-6.26,17.03-13.35,8.29-1.02,14-3.86,16.86-9.24.06-.11.18-.16.29-.12.12.04.19.15.18.27-.18,2.11-.94,6.33-4.07,8.27,6.96-.01,12.51.89,17.8,3.01.11.04.18.16.15.28ZM51.84-.64c.1.06.23.05.32-.03.09-.08.1-.21.04-.31-1.62-2.8-.14-6.81,3.05-6.81,5.72,0,8.47,10.77,7.6,20.59-2.16-5.75-4.03-8.05-7.35-10.79-.09-.08-.23-.08-.32,0-.09.08-.12.21-.06.32,4.86,9.08,5.9,16.06,5.9,24.08-1.46-5.96-3.2-9.32-8.13-14.38-.09-.09-.22-.1-.32-.03-.1.07-.14.2-.09.31,5.3,11.59,4.89,24.45.95,34.26-.04.1-.01.21.06.28.08.07.19.09.29.04,5.21-2.55,8.26-4.23,12.75-10.39-1.36-7.4-.23-11.05,3.17-17.19-3.94,9.92-1.84,23.89,8.19,29.59.11.06.25.04.32-.06.08-.1.07-.24-.02-.33-3.78-3.96-6.53-10.63-4.16-17.93-1.53,10.39,7.6,19.11,17.78,19.11,9.6,0,16.15-7.51,15.61-14.94-.54-7.37-5.44-10.97-9.67-12.5-.11-.04-.24,0-.3.1-.06.1-.05.23.03.31,5.61,5.69,6.38,16.49-3.58,19.76,5.86-5.06,3.69-16.83-5.69-17.72-.12,0-.23.06-.26.17-.04.11,0,.23.1.29,2.01,1.28,3.68,3.77,3.68,6.57,0,4.67-3.42,6.51-5.68,6.51-3.42,0-6.26-3.26-6.26-8.18,0-5.84,5.26-10.68,12.02-11.43,6.63-.74,12.78,2.15,15.75,6.46.07.1.2.14.31.09.11-.05.17-.17.14-.29-3.02-11.7-16.8-16.88-26.89-9.51,6.61-7.5,17.01-7.61,25.72.09.09.08.22.09.32.01.1-.07.13-.21.07-.31-2.67-5.41-9.25-11.82-18.61-10.88-8.56.86-13.52,9.02-14.52,15.69-.56-8.52,1.39-14.54,8.75-20.14.1-.07.13-.21.07-.32s-.18-.16-.3-.13c-6.79,1.96-12.23,5.42-15.05,12.54,0-6.16,2.14-12.37,7.53-16.51.1-.07.13-.21.07-.32-.05-.11-.18-.16-.29-.13-3.45.98-6.17,2.49-8.14,5.18-1.31-11.1-6.52-17.69-12.53-17.69-4.12,0-7.21,3.03-7.21,7.87,0,2.83,1.49,6.8,4.81,9.02ZM-47.39,90.98c3.16,3.9,9.54,5.39,16.43,3.99-.51,4.3.33,8.79,1.61,11.49.05.11.17.17.29.14s.2-.14.19-.26c-.38-8.77,4.62-15.84,13.45-18.91-6.91,4.76-8.93,14.19-5.64,19.06.07.1.2.14.31.09.11-.04.18-.16.15-.28-.37-2.06.61-4.68,2.71-6.72,2.91-2.81,6.85-3.45,8.81-1.43,1.96,2.03,1.2,5.95-1.71,8.76-1.06,1.03-2.26,1.76-3.45,2.19-.11.04-.18.15-.17.27.01.12.11.21.23.22,6.39.55,10.77-3.25,13.52-7.88,2.8-4.71,7.57-8.41,13.21-7.67.12.02.23-.05.27-.17.04-.11,0-.24-.11-.3-2.8-1.68-5.87-2.38-9.86-1.05,5.79-4.91,14.05-7.74,21.84-5.23.11.04.23,0,.29-.1.06-.1.05-.22-.03-.31-5.91-6.56-17.69-6.7-25.11-1.37,3.04-4.32,7.07-7.49,14.29-8.48.12-.02.21-.11.22-.22.01-.12-.05-.22-.16-.27-8.29-3.08-16.6.04-23.45,8.22,2.99-6.38,7.91-11.49,14.77-14.01.12-.04.18-.16.16-.28-.02-.12-.12-.21-.24-.21-3.94-.08-7.49.86-12.27,3.57,3.51-5.69,2.74-15.64-2.37-22.26-.07-.09-.2-.12-.3-.08-.11.05-.17.16-.15.28,1.18,7.2-1.3,15.33-5.61,19.64,2.15-7.63,0-14.58-5.9-19.64-.07-.06-.17-.08-.26-.04-.09.03-.15.11-.16.2-1.23,9.42-11.77,18.97-20.6,19.78-.12.01-.22.11-.23.24s.07.24.2.26c4.28.97,8.69.49,12.39-1.03-2.66,2.93-5.94,5.11-9.55,6.24-.12.04-.19.15-.18.27.01.12.11.22.23.22,4.51.31,8.92-1.01,12.73-3.54-4.36,6.62-10.98,11.54-19.43,13.51-.12.03-.2.14-.2.26,0,.12.1.22.23.24,11.92,1.3,21.75-3.32,28.22-11.92-1.65,4.9-6.37,9.76-12.95,12.62-5.85,2.54-11.85,2.95-16.42,1.51-.11-.03-.22,0-.29.1-.06.09-.06.22.01.3ZM5.52,15.41c-4.81,10.49-4.46,18.69-.59,29.05.04.12.17.19.29.16.12-.03.21-.14.2-.26-.62-12.62,2.83-21.65,10.3-27.81-8.25,9.85-4.35,29.56,8.82,29.56,9.59,0,17.52-7.98,19.46-17.53.03-.12-.04-.24-.16-.29-.12-.04-.25,0-.31.11-2.84,4.76-7.41,7.85-12.46,7.85-8.14,0-10.54-6.47-10.54-11,0-6.19,4.93-11.34,8.71-11.34,3.44,0,5.04,2.82,5.04,4.93,0,3.9-3,7.17-6.38,8.16-.12.04-.2.15-.18.28s.12.22.25.22c4.11.03,7.58-1.85,9.63-5.57.27,2.87.27,4.69-.64,7.72-.04.12.02.24.12.3.11.05.24.03.32-.07,7.36-9.39,3.84-25.62-1.98-32.36,5.53,3.98,10.42,12.63,10.34,24.39,0,.12.08.23.21.25.12.02.24-.04.28-.15,4.11-10.25,1.93-29.25-9.28-39.85,2.88-.4,5.87-.35,9.12.69.12.04.24-.01.3-.12.06-.11.04-.24-.06-.32-4.09-3.46-9.81-4.54-15.27-4.54,4.7,5.5,3.14,16.55-4.35,16.55-5.35,0-7.78-8.3-3.65-12.78.08-.09.09-.21.03-.31-.06-.1-.19-.14-.3-.1-4.78,1.66-9.95,5.79-9.95,11.02S17.66,1.66,24.65,1.32C15.83,3.82,6.6,1.05,1.77-4.94c-.07-.09-.21-.12-.31-.07-.11.05-.16.17-.13.29,2.79,10.71,11.97,15.2,23.44,13.71C15.48,12.75,1.52,9.47-4.66,1.68c-.07-.09-.2-.12-.31-.07-.11.05-.16.17-.14.28C-3.73,8.51-.24,13.45,5.52,15.41Z"/>
        </g>
      </g>
    </pattern>
    <linearGradient id="Gold_Dust" data-name="Gold Dust" x1="153.96" y1="98.72" x2="294.46" y2="98.72" gradientUnits="userSpaceOnUse">
      <stop offset="0" stop-color="#ff7300"/>
      <stop offset=".18" stop-color="#f97c00"/>
      <stop offset=".47" stop-color="#ea9502"/>
      <stop offset=".55" stop-color="#e59e03"/>
      <stop offset=".87" stop-color="#e5c500"/>
      <stop offset=".99" stop-color="#bf6f00"/>
    </linearGradient>
    <filter id="drop-shadow-1" filterUnits="userSpaceOnUse">
      <feOffset dx="82.2" dy="7"/>
      <feGaussianBlur result="blur" stdDeviation="5"/>
      <feFlood flood-color="#000" flood-opacity=".15"/>
      <feComposite in2="blur" operator="in"/>
      <feComposite in="SourceGraphic"/>
    </filter>
    <filter id="drop-shadow-2" filterUnits="userSpaceOnUse">
      <feOffset dx="82.2" dy="7"/>
      <feGaussianBlur result="blur-2" stdDeviation="5"/>
      <feFlood flood-color="#000" flood-opacity=".15"/>
      <feComposite in2="blur-2" operator="in"/>
      <feComposite in="SourceGraphic"/>
    </filter>
    <linearGradient id="linear-gradient" x1="274.79" y1="55.33" x2="309.49" y2="55.33" gradientUnits="userSpaceOnUse">
      <stop offset="0" stop-color="#ff7300"/>
      <stop offset=".07" stop-color="#f97c00"/>
      <stop offset=".18" stop-color="#ea9502"/>
      <stop offset=".21" stop-color="#e59e03"/>
      <stop offset=".49" stop-color="#e5c500"/>
      <stop offset=".62" stop-color="#d9ab00"/>
      <stop offset=".87" stop-color="#c67f00"/>
      <stop offset=".99" stop-color="#bf6f00"/>
    </linearGradient>
    <linearGradient id="Gold_Dust-2" data-name="Gold Dust" x1="273.79" y1="55.33" x2="310.49" y2="55.33" xlink:href="#Gold_Dust"/>
    <filter id="drop-shadow-3" filterUnits="userSpaceOnUse">
      <feOffset dx="0" dy="2.83"/>
      <feGaussianBlur result="blur-3" stdDeviation="5"/>
      <feFlood flood-color="#000" flood-opacity=".75"/>
      <feComposite in2="blur-3" operator="in"/>
      <feComposite in="SourceGraphic"/>
    </filter>
    <linearGradient id="Gold_Dust-3" data-name="Gold Dust" x1="101.45" y1="27.07" x2="125.26" y2="27.07" xlink:href="#Gold_Dust"/>
    <linearGradient id="linear-gradient-2" x1="235.13" y1="68.23" x2="251.85" y2="68.23" xlink:href="#linear-gradient"/>
    <linearGradient id="Gold_Dust-4" data-name="Gold Dust" x1="234.88" y1="68.23" x2="252.1" y2="68.23" xlink:href="#Gold_Dust"/>
    <filter id="drop-shadow-4" filterUnits="userSpaceOnUse">
      <feOffset dx="0" dy="2.83"/>
      <feGaussianBlur result="blur-4" stdDeviation="5"/>
      <feFlood flood-color="#000" flood-opacity=".75"/>
      <feComposite in2="blur-4" operator="in"/>
      <feComposite in="SourceGraphic"/>
    </filter>
    <linearGradient id="linear-gradient-3" x1="170.98" y1="75.48" x2="182.25" y2="75.48" xlink:href="#linear-gradient"/>
    <linearGradient id="Gold_Dust-5" data-name="Gold Dust" x1="170.73" y1="75.48" x2="182.5" y2="75.48" xlink:href="#Gold_Dust"/>
    <filter id="drop-shadow-5" filterUnits="userSpaceOnUse">
      <feOffset dx="0" dy="2.83"/>
      <feGaussianBlur result="blur-5" stdDeviation="5"/>
      <feFlood flood-color="#000" flood-opacity=".75"/>
      <feComposite in2="blur-5" operator="in"/>
      <feComposite in="SourceGraphic"/>
    </filter>
  </defs>
  <rect class="cls-26" x="1.5" y="1.5" width="460.33" height="460.33"/>
  <rect class="cls-19" x="1.5" y="1.5" width="460.33" height="239.54"/>
  <g>
    <polyline class="cls-10" points="137.13 33.33 135.23 143.7 135.14 149.07 297.4 151.87"/>
    <polyline class="cls-7" points="155.57 105.86 175.56 88.9 187.57 118.94 206.07 119.26 217.06 104.53 243.71 81.72 247.21 86.55 268.5 97.66 273.66 109.69 285.28 93.77 292.14 76.59"/>
    <polygon class="cls-10" points="137.28 24.87 142.17 33.69 132.08 33.52 137.28 24.87"/>
    <polygon class="cls-10" points="305.98 152.01 297.15 156.91 297.33 146.82 305.98 152.01"/>
  </g>
  <g class="cls-25">
    <g>
      <path class="cls-33" d="m84.81,461.83H16.56c1.71-8.52,4.05-18.63-.02-33.12-4.7-16.72-4.39-18.37-5.69-32.34-1.94-20.89,4.89-38.03,7.79-41.32,2.71-3.07,5.79-5.85,9.16-8.33,27.04-19.94,73-21.09,99.5-3.05,3.12,2.12,5.98,4.52,8.5,7.18,15.22,16.06,2.73,25.44,23.85,86.99,3.55,10.34,6.45,17.51,7.02,24h-80.27c-3.47-14.72-3.59-28.36-4.62-28.21-1.04.15,2.5,13.57,3.02,28.21Z"/>
      <path class="cls-15" d="m143.5,300.31c0,58.7-31.24,46.3-69.79,46.3-15.89,0-32.6,5.9-50.12-1.4-4.06-1.69-6.13-3.14-7.43-4.18-10.72-8.54-12.25-23.91-12.25-40.72,0-58.7,9.89-106.28,69.8-106.28,72.7,0,69.8,47.58,69.8,106.28Z"/>
    </g>
    <g>
      <path class="cls-14" d="m113.35,213.33c-8.23,4.95-6.57,26.51,2.1,40.69,14.34,23.44,50.74,31.43,71.56,18.94,31.01-18.61,19.73-78.09,2.1-105.23-3.76-5.78-12.69-19.55-22.45-18.24-5.77.77-11.37,6.76-10.52,10.52.67,3.01,5.16,3.24,12.63,7.02,0,0,7.24,3.66,14.73,10.52,13.77,12.61,10.08,57.29-7.72,64.54-20.42,8.32-48.76-36.99-62.44-28.76Z"/>
      <path class="cls-14" d="m143.52,160.55c.05.43.68.59.9.65,3.23.78,14.59-2.46,18.12-6.03.12-.12,2.41-2.48.58-2.84-3.43-.69-19.87,5.91-19.6,8.22Z"/>
    </g>
    <path class="cls-2" d="m179.31,173.87c5.98,3.63-3.3-3.18,4.2,3.68,13.77,12.61,10.08,57.29-7.72,64.54-20.42,8.32-48.76-36.99-62.44-28.76-8.23,4.95-6.57,26.51,2.1,40.69,14.34,23.44,50.74,31.43,71.56,18.94,31.01-18.61,19.73-78.09,2.1-105.23"/>
    <g>
      <path class="cls-13" d="m55.13,169.14c-.4,6.09-1.75,27.04,7.72,31.57,5.59,2.68,17.9,10.28,32.95.73,5.19-3.29,4.84-19.58,12.65-23.88,21.3-11.73,23.51-5.1,26.66-11.36,9.85-19.55-26.38-62.64-50.19-63.51-24.41-.89-27.84,36.58-29.78,66.45Z"/>
      <path class="cls-21" d="m87.36,118.9c1.14-2.66,10.46,1.79,16.08-2.76,5.07-4.1,6.06-14.65,2.13-20.53-8.05-12.04-41.85-12.15-61.46,6.03-12.97,12.03-20.42,32.7-13.95,52.19,1.37,4.14,7.42,25.64,23.53,27.75,1.39.18,2.45.18,3.2.16,14.65-.42,28.27-15.32,25.91-23.31-1.52-5.14-8.7-4.1-12.09-11.42-2.18-4.71-2.18-11.44.91-13.59,4.35-3.03,14.67,3.15,20.47,10.13,8.03,9.67,8.2,21.88,8.1,25.6-.3,11.38-5.12,16.3-2.43,18.99,3.37,3.37,11.1-4.19,27.92-5.99,11.43-1.23,15.53,1.44,18.78-2,5.2-5.5,3.33-21.36-5.59-24.17-4.63-1.45-10.33.88-14.63,5.36-4.73,1.31-9.86,1.73-13.59-.91-6.7-4.74-1.9-14.35-8.78-25.79-5.9-9.81-15.66-13.09-14.52-15.75Z"/>
      <path class="cls-31" d="m113.35,127.94c3.86,0,3.87-6,0-6s-3.87,6,0,6h0Z"/>
      <path class="cls-21" d="m128.27,136.67c-3.09,1.08-5.76,2.64-8.23,4.79-1.78,1.55-1.7,4.8,0,6.36,1.9,1.74,4.46,1.65,6.36,0,.21-.19.43-.37.65-.55-.35.27-.31.24.12-.07.42-.27.83-.55,1.26-.8s.88-.47,1.32-.7c.48-.22.52-.24.1-.06.27-.1.53-.2.8-.29,2.22-.78,3.93-3.11,3.14-5.54-.71-2.19-3.16-3.98-5.54-3.14h0Z"/>
      <path class="cls-21" d="m113.3,113.78c-2.57-.7-5.36.03-7.21,1.96-1.09,1.13-1.21,3.13,0,4.24s3.08,1.21,4.24,0c.11-.12.23-.24.35-.34-.28.21-.29.23,0,.04.5-.28-.42.08.3-.13.12-.04.24-.06.36-.09-.39.05-.41.06-.06.03.35.02.33,0-.06-.05.16.03.32.07.48.11,1.51.41,3.33-.51,3.69-2.1s-.47-3.25-2.1-3.69h0Z"/>
    </g>
  </g>
  <g class="cls-30">
    <g>
      <path class="cls-28" d="m449.82,420.26c-.2,14.03-.81,14.17-5.51,30.89-1.08,3.85-1.71,7.39-2.02,10.67h-63.69c.56-3.53.88-5.7.46-5.76-.42-.06-.69,2.14-1.09,5.76h-77.32c.18-.51.35-1.03.54-1.55,21.12-61.55,8.63-70.93,23.85-86.99,2.52-2.66,5.38-5.05,8.5-7.18,26.5-18.04,72.46-16.89,99.5,3.05,3.37,2.48,6.45,5.26,9.16,8.33,2.9,3.29,7.96,18.55,7.61,42.77Z"/>
      <path class="cls-16" d="m317.34,322.75c0,58.7,31.24,46.3,69.79,46.3,15.89,0,32.6,5.9,50.12-1.4,4.06-1.69,6.13-3.14,7.43-4.18,10.72-8.54,12.25-23.91,12.25-40.72,0-58.7-9.89-106.28-69.8-106.28-72.7,0-69.8,47.58-69.8,106.28Z"/>
    </g>
    <g>
      <g>
        <path class="cls-11" d="m347.5,235.78c8.23,4.95,6.57,26.51-2.1,40.69-14.34,23.44-39.17,4.37-59.98-8.12-31.01-18.61-40.88-84.68-23.26-111.82,3.76-5.78-7.95-24.59,1.81-23.29,5.77.77,12.38-.49,11.54,3.27-.67,3.01,5.74,15.47-1.73,19.24,0,0,1.5,3.72-6,10.59-13.77,12.61,11.66,63.36,29.46,70.62,20.42,8.32,36.6-9.41,50.28-1.19Z"/>
        <path class="cls-12" d="m274.58,142.27c-.41.14-.83-.35-.97-.52-2.11-2.57-4.14-14.2-2.47-18.94.06-.16,1.18-3.25,2.31-1.76,2.11,2.78,3.34,20.47,1.14,21.22Z"/>
      </g>
      <path class="cls-3" d="m275.53,161.41c-1.4,6.9-1,.82-2.57,10.64-2.95,18.43,5.01,55.42,22.8,62.67,20.42,8.32,38.06-7.16,51.74,1.06,8.23,4.95,6.52,26.47-2.1,40.69-16.66,27.47-43.32,1.84-64.13-10.65-31.01-18.61-36.74-81.77-19.11-108.92"/>
    </g>
    <g>
      <path class="cls-24" d="m405.72,191.59c.4,6.09,1.75,27.04-7.72,31.57-5.59,2.68-17.9,10.28-32.95.73-5.19-3.29-4.84-19.58-12.65-23.88-21.3-11.73-23.51-5.1-26.66-11.36-9.85-19.55,26.38-62.64,50.19-63.51,24.41-.89,27.84,36.58,29.78,66.45Z"/>
      <path class="cls-21" d="m373.48,141.35c-1.14-2.66-10.46,1.79-16.08-2.76-5.07-4.1-6.06-14.65-2.13-20.53,8.05-12.04,41.85-12.15,61.46,6.03,12.97,12.03,20.42,32.7,13.95,52.19-1.37,4.14-7.42,25.64-23.53,27.75-1.39.18-2.45.18-3.2.16-14.65-.42-28.27-15.32-25.91-23.31,1.52-5.14,8.7-4.1,12.09-11.42,2.18-4.71,2.18-11.44-.91-13.59-4.35-3.03-14.67,3.15-20.47,10.13-8.03,9.67-9.84,9.53-9.74,13.25.3,11.38-6.93-10.71-.05-22.15,5.9-9.81,15.66-13.09,14.52-15.75Z"/>
      <path class="cls-27" d="m347.5,150.39c3.86,0,3.87-6,0-6s-3.87,6,0,6h0Z"/>
      <path class="cls-21" d="m349.15,142.01c.16-.05.32-.09.48-.11-.39.05-.41.07-.06.05.35.02.33.01-.06-.03.12.02.24.05.36.09.73.2-.19-.15.3.13.28.19.28.17,0-.04.12.11.24.22.35.34,1.09,1.13,3.16,1.18,4.24,0s1.16-3.03,0-4.24c-1.85-1.93-4.64-2.66-7.21-1.96-1.51.41-2.59,2.15-2.1,3.69s2.07,2.54,3.69,2.1h0Z"/>
    </g>
  </g>
  <g>
    <circle class="cls-18" cx="292.14" cy="55.33" r="17.35"/>
    <g class="cls-23">
      <line class="cls-4" x1="292.14" y1="44.04" x2="292.14" y2="66.03"/>
      <path class="cls-4" d="m297.44,48.17h-6.99c-2,0-3.63,1.62-3.63,3.63h0c0,2,1.62,3.63,3.63,3.63h3.37c2,0,3.63,1.62,3.63,3.63h0c0,2-1.62,3.63-3.63,3.63h-6.99"/>
    </g>
  </g>
  <g>
    <circle class="cls-8" cx="113.35" cy="27.07" r="10.91"/>
    <g>
      <line class="cls-4" x1="113.35" y1="20.22" x2="113.35" y2="34.04"/>
      <path class="cls-4" d="m116.69,22.81h-4.39c-1.26,0-2.28,1.02-2.28,2.28h0c0,1.26,1.02,2.28,2.28,2.28h2.12c1.26,0,2.28,1.02,2.28,2.28h0c0,1.26-1.02,2.28-2.28,2.28h-4.39"/>
    </g>
  </g>
  <g>
    <circle class="cls-5" cx="243.49" cy="68.23" r="8.36"/>
    <g class="cls-22">
      <line class="cls-1" x1="243.49" y1="62.79" x2="243.49" y2="73.38"/>
      <path class="cls-1" d="m246.05,64.77h-3.37c-.97,0-1.75.78-1.75,1.75h0c0,.97.78,1.75,1.75,1.75h1.62c.97,0,1.75.78,1.75,1.75h0c0,.97-.78,1.75-1.75,1.75h-3.37"/>
    </g>
  </g>
  <g>
    <circle class="cls-6" cx="176.61" cy="75.48" r="5.63"/>
    <g class="cls-29">
      <line class="cls-1" x1="176.61" y1="71.82" x2="176.61" y2="78.96"/>
      <path class="cls-1" d="m178.34,73.16h-2.27c-.65,0-1.18.53-1.18,1.18h0c0,.65.53,1.18,1.18,1.18h1.09c.65,0,1.18.53,1.18,1.18h0c0,.65-.53,1.18-1.18,1.18h-2.27"/>
    </g>
  </g>
  <g>
    <circle class="cls-17" cx="305.74" cy="171.15" r="9.83"/>
    <line class="cls-17" x1="305.17" y1="172.53" x2="311.05" y2="167.65"/>
    <line class="cls-17" x1="302.45" y1="169.5" x2="305.74" y2="172.79"/>
    <path class="cls-20" d="m305.67,164.41c1.93,0,1.93-3,0-3s-1.93,3,0,3h0Z"/>
    <path class="cls-20" d="m313.71,172.59c1.93,0,1.93-3,0-3s-1.93,3,0,3h0Z"/>
    <path class="cls-20" d="m305.88,180.56c1.93,0,1.93-3,0-3s-1.93,3,0,3h0Z"/>
    <path class="cls-20" d="m297.7,172.74c1.93,0,1.93-3,0-3s-1.93,3,0,3h0Z"/>
    <path class="cls-20" d="m298.71,168.02c.48,0,.48-.75,0-.75s-.48.75,0,.75h0Z"/>
    <path class="cls-20" d="m301.36,164.94c.48,0,.48-.75,0-.75s-.48.75,0,.75h0Z"/>
    <path class="cls-20" d="m310.26,164.36c.48,0,.48-.75,0-.75s-.48.75,0,.75h0Z"/>
    <path class="cls-20" d="m312.99,167.52c.48,0,.48-.75,0-.75s-.48.75,0,.75h0Z"/>
    <path class="cls-20" d="m312.84,175.2c.48,0,.48-.75,0-.75s-.48.75,0,.75h0Z"/>
    <path class="cls-20" d="m310.19,177.78c.48,0,.48-.75,0-.75s-.48.75,0,.75h0Z"/>
    <path class="cls-20" d="m302.01,178.64c.48,0,.48-.75,0-.75s-.48.75,0,.75h0Z"/>
    <path class="cls-20" d="m299.21,175.85c.48,0,.48-.75,0-.75s-.48.75,0,.75h0Z"/>
  </g>
</svg>